<svg xmlns="http://www.w3.org/2000/svg" xmlns:xlink="http://www.w3.org/1999/xlink" viewBox="0 0 344.12 446.42"><defs><linearGradient id="b18f185d-cd6b-42f6-87f2-5b7dfe8f2f56" x1="19.59" y1="64.9" x2="344.12" y2="64.9" gradientUnits="userSpaceOnUse"><stop offset="0" stop-color="#9080ba"/><stop offset="1" stop-color="#5961a9"/></linearGradient><linearGradient id="a6b2e73b-dee3-44e1-9b85-24eae4a6c8c3" x1="19.59" y1="117.54" x2="343.93" y2="117.54" xlink:href="#b18f185d-cd6b-42f6-87f2-5b7dfe8f2f56"/><linearGradient id="f5d17076-70c1-41b7-9cf7-b367d9fcf4e8" x1="281.34" y1="41.84" x2="276.9" y2="143.14" gradientUnits="userSpaceOnUse"><stop offset="0" stop-color="#311b44"/><stop offset="1" stop-color="#a23a77"/></linearGradient><linearGradient id="ad2d3cb6-257c-4f24-913b-4983c542561e" x1="306.59" y1="41.53" x2="302.13" y2="143.23" xlink:href="#f5d17076-70c1-41b7-9cf7-b367d9fcf4e8"/><linearGradient id="e5e0b1e7-d2dd-4e88-be09-ce2821f349a7" x1="281.32" y1="68.81" x2="276.57" y2="177.31" xlink:href="#f5d17076-70c1-41b7-9cf7-b367d9fcf4e8"/><linearGradient id="fe394f94-f243-43e6-8d91-2e130f560afd" x1="306.64" y1="66.66" x2="301.54" y2="182.85" xlink:href="#f5d17076-70c1-41b7-9cf7-b367d9fcf4e8"/><linearGradient id="e723b414-aac3-4931-a20c-02f80dff559f" x1="3812.81" y1="-5874.43" x2="3808.53" y2="-5777" gradientTransform="translate(-5563.33 -3739.49) rotate(90)" xlink:href="#f5d17076-70c1-41b7-9cf7-b367d9fcf4e8"/><linearGradient id="bdbb7620-a7b0-4e1f-b284-6add5d792cf0" x1="3786.35" y1="-5874.43" x2="3782.07" y2="-5776.99" gradientTransform="translate(-5563.33 -3739.49) rotate(90)" xlink:href="#f5d17076-70c1-41b7-9cf7-b367d9fcf4e8"/><linearGradient id="ea009295-66f9-4e3e-8a87-c300dfd21a7c" x1="3840.55" y1="-5875.07" x2="3835.95" y2="-5770.19" gradientTransform="translate(-5563.33 -3739.49) rotate(90)" xlink:href="#f5d17076-70c1-41b7-9cf7-b367d9fcf4e8"/><linearGradient id="a545db14-77e4-4f85-8c04-2543cc9097e9" x1="341.23" y1="37.92" x2="-156.05" y2="314.55" gradientUnits="userSpaceOnUse"><stop offset="0" stop-color="#444c8d"/><stop offset="1" stop-color="#3f4178"/></linearGradient><linearGradient id="ff0a3a18-b144-4599-8546-03c288e160f7" x1="356.42" y1="70.61" x2="-133.6" y2="343.21" xlink:href="#a545db14-77e4-4f85-8c04-2543cc9097e9"/><linearGradient id="bc63303d-09e6-44bb-9ebd-c91a891ab3cf" x1="369.65" y1="102.37" x2="-113.52" y2="371.15" xlink:href="#a545db14-77e4-4f85-8c04-2543cc9097e9"/><linearGradient id="b3bfad7d-72e1-4b1a-b823-938a08b23629" x1="385.86" y1="133.19" x2="-90.38" y2="398.13" xlink:href="#a545db14-77e4-4f85-8c04-2543cc9097e9"/><linearGradient id="b1fc7851-3fc6-4ef5-8b6f-fc9d989e646e" x1="365.59" y1="79.67" x2="-132.71" y2="356.87" xlink:href="#a545db14-77e4-4f85-8c04-2543cc9097e9"/><linearGradient id="b733db93-0f8b-46a5-af8d-f156229249f1" x1="380.26" y1="112.18" x2="-110.76" y2="385.33" xlink:href="#a545db14-77e4-4f85-8c04-2543cc9097e9"/><linearGradient id="bc80688b-b6be-449d-b746-7c54573d7a69" x1="393" y1="143.76" x2="-91.16" y2="413.09" xlink:href="#a545db14-77e4-4f85-8c04-2543cc9097e9"/><linearGradient id="f5192c17-d4ce-46f6-ad59-0505eac87f9a" x1="408.73" y1="174.4" x2="-68.49" y2="439.87" xlink:href="#a545db14-77e4-4f85-8c04-2543cc9097e9"/><linearGradient id="ad71c146-293e-4959-9079-e90f00368afe" x1="390.02" y1="120.04" x2="-109.27" y2="397.79" xlink:href="#a545db14-77e4-4f85-8c04-2543cc9097e9"/><linearGradient id="b2474afb-5ef6-44d3-aa51-c9faf39b9c59" x1="404.19" y1="152.37" x2="-87.82" y2="426.06" xlink:href="#a545db14-77e4-4f85-8c04-2543cc9097e9"/><linearGradient id="f27b0809-c85d-4cb7-a8a2-15650fa41601" x1="416.44" y1="183.78" x2="-68.68" y2="453.65" xlink:href="#a545db14-77e4-4f85-8c04-2543cc9097e9"/><linearGradient id="faa4ba59-788f-4d6f-95cf-fc6e9a012f29" x1="431.68" y1="214.24" x2="-46.49" y2="480.24" xlink:href="#a545db14-77e4-4f85-8c04-2543cc9097e9"/><linearGradient id="ff7de11b-fdaa-46d5-9450-c2ec0d039d28" x1="414.53" y1="159.03" x2="-85.72" y2="437.31" xlink:href="#a545db14-77e4-4f85-8c04-2543cc9097e9"/><linearGradient id="b0a3f649-f3fa-4f7d-8908-27df4fa74316" x1="428.19" y1="191.19" x2="-64.76" y2="465.41" xlink:href="#a545db14-77e4-4f85-8c04-2543cc9097e9"/><linearGradient id="bf80ff30-1a90-41d5-afb4-5223438967d0" x1="439.96" y1="222.44" x2="-46.1" y2="492.83" xlink:href="#a545db14-77e4-4f85-8c04-2543cc9097e9"/><linearGradient id="a72af26a-b815-4333-b55f-a2ad573255d0" x1="439.18" y1="201.73" x2="-62.1" y2="480.59" xlink:href="#a545db14-77e4-4f85-8c04-2543cc9097e9"/><linearGradient id="a7683cf9-ec24-4093-af05-8e8e0e45f21c" x1="452.32" y1="233.7" x2="-41.65" y2="508.49" xlink:href="#a545db14-77e4-4f85-8c04-2543cc9097e9"/><linearGradient id="be09af80-9cd7-4acb-b43d-a8ed86841ca4" x1="463.6" y1="264.77" x2="-23.47" y2="535.72" xlink:href="#a545db14-77e4-4f85-8c04-2543cc9097e9"/><linearGradient id="b22ba1f9-e4d2-49ca-a6a0-5b7435996c55" x1="466.23" y1="273.7" x2="-13.79" y2="540.73" xlink:href="#a545db14-77e4-4f85-8c04-2543cc9097e9"/><linearGradient id="b1a4cb2d-641f-4911-998e-7b64c8fd171f" x1="75.43" y1="154.84" x2="67.19" y2="342.52" gradientUnits="userSpaceOnUse"><stop offset="0" stop-color="#444c8d"/><stop offset="1" stop-color="#26274f"/></linearGradient><linearGradient id="bdaf97a5-593e-4c66-8fc5-2f8c7c1a2978" x1="150.14" y1="153.29" x2="141.98" y2="339.36" xlink:href="#b1a4cb2d-641f-4911-998e-7b64c8fd171f"/><linearGradient id="b66d5597-05a0-421f-be8d-113bc4ecf7a6" x1="226.25" y1="151.72" x2="218.16" y2="336.13" xlink:href="#b1a4cb2d-641f-4911-998e-7b64c8fd171f"/><linearGradient id="a7cdaa0d-2c0d-4cb8-aed0-27db1cd94216" x1="301.13" y1="150.16" x2="293.11" y2="332.97" xlink:href="#b1a4cb2d-641f-4911-998e-7b64c8fd171f"/><linearGradient id="b0274a0d-58b0-4d16-bee8-4c64cab3a40c" x1="75.4" y1="209.9" x2="67.11" y2="398.94" xlink:href="#b1a4cb2d-641f-4911-998e-7b64c8fd171f"/><linearGradient id="a5774f4f-3dd9-4b90-b389-373293d8a05a" x1="150.08" y1="207.92" x2="141.86" y2="395.32" xlink:href="#b1a4cb2d-641f-4911-998e-7b64c8fd171f"/><linearGradient id="a9d71262-ccef-4f8d-9b11-8f5f922e6d0d" x1="226.15" y1="205.9" x2="218" y2="391.64" xlink:href="#b1a4cb2d-641f-4911-998e-7b64c8fd171f"/><linearGradient id="b646d71f-b7c6-4e43-9c65-2ac2e45da865" x1="300.99" y1="203.92" x2="292.92" y2="388.01" xlink:href="#b1a4cb2d-641f-4911-998e-7b64c8fd171f"/><linearGradient id="b2e158c1-f0da-4702-8d33-2ad6911057c6" x1="75.38" y1="263.63" x2="67.03" y2="453.99" xlink:href="#b1a4cb2d-641f-4911-998e-7b64c8fd171f"/><linearGradient id="fa11c419-c614-4d9a-ae47-0be8f5353156" x1="150.02" y1="261.23" x2="141.74" y2="449.93" xlink:href="#b1a4cb2d-641f-4911-998e-7b64c8fd171f"/><linearGradient id="f5419e55-e8bb-41aa-9046-62af054903b0" x1="226.05" y1="258.78" x2="217.85" y2="445.8" xlink:href="#b1a4cb2d-641f-4911-998e-7b64c8fd171f"/><linearGradient id="b10d6371-f6ab-4a3d-b05a-d62ef81923e4" x1="300.86" y1="256.37" x2="292.73" y2="441.73" xlink:href="#b1a4cb2d-641f-4911-998e-7b64c8fd171f"/><linearGradient id="fe36aac7-5cdd-4658-9f54-6cf3fc4b663a" x1="75.35" y1="316.03" x2="66.95" y2="507.68" xlink:href="#b1a4cb2d-641f-4911-998e-7b64c8fd171f"/><linearGradient id="b12c6bca-bf44-4479-ae79-7b94dbbe3baa" x1="149.96" y1="313.21" x2="141.63" y2="503.19" xlink:href="#b1a4cb2d-641f-4911-998e-7b64c8fd171f"/><linearGradient id="ff4f6e1c-3b6a-40c6-86d0-fb4a6359550f" x1="225.96" y1="310.35" x2="217.7" y2="498.62" xlink:href="#b1a4cb2d-641f-4911-998e-7b64c8fd171f"/><linearGradient id="aadb770d-07f0-4746-84e1-fb0abdd4ff0b" x1="75.33" y1="372.2" x2="66.86" y2="565.25" xlink:href="#b1a4cb2d-641f-4911-998e-7b64c8fd171f"/><linearGradient id="edc29975-fece-4e91-92ed-908196aa3152" x1="149.9" y1="368.95" x2="141.51" y2="560.29" xlink:href="#b1a4cb2d-641f-4911-998e-7b64c8fd171f"/><linearGradient id="b284ab26-18d3-4b80-bc2e-2599e63ac46f" x1="225.86" y1="365.64" x2="217.54" y2="555.25" xlink:href="#b1a4cb2d-641f-4911-998e-7b64c8fd171f"/><linearGradient id="a13ea7f7-b98e-41cf-939a-f3d1009fbd15" x1="303.01" y1="281.38" x2="281.51" y2="771.64" xlink:href="#b1a4cb2d-641f-4911-998e-7b64c8fd171f"/></defs><g style="isolation:isolate"><g id="f09f8aeb-38c8-471e-8291-f423b5fa9615" data-name="Calque 1"><path d="M325.15,32.69l-1.08,365.94c-.05,17.94-14.5,33.53-32.54,34.46L34.72,446.38C15.59,447.37,0,432.81,0,414.24V35.4C0,17.82,13.83,3.32,31.45,1.56c1.12-.11,2.27-.15,3.42-.16L292.67.17A32.23,32.23,0,0,1,325.15,32.69Z" style="fill:#173860"/><path d="M344.12,32.5,343,398.12c-.06,17.92-13.73,33.45-31.74,34.38L55,445.75c-19.1,1-35.44-13.51-35.44-32.06L19.6,35.2c0-17.56,14.19-32.05,31.78-33.81,1.12-.11,2.66-.15,3.81-.16L312.47,0C330.54-.09,344.18,14.44,344.12,32.5Z" style="fill:#478ac9"/><g style="opacity:0.30000000000000004;mix-blend-mode:multiply"><path d="M344.12,32l-.28,91.9L19.59,129.81V34.67c0-17.15,13.55-31.1,30.53-33.4a42.61,42.61,0,0,1,5.06,0L312.47,0C330.54-.09,344.18,13.92,344.12,32Z" style="fill:url(#b18f185d-cd6b-42f6-87f2-5b7dfe8f2f56)"/><path d="M343.93,95.63l-.12,38.19c-32.58,9.79-91.9,17.06-158.94,18.47-29.27.62-57.37.06-82.61-1.47-33.36-2-61.33-5.78-82.67-10.72V100.57c8-1.95,15.41-3.77,24.18-5.47a665.87,665.87,0,0,1,67.79-8.92c22.89-2,47.88-3.19,73.81-3.54,33.6-.46,65,.62,92.26,2.91l6.32.56c6.54.6,12.84,1.28,18.83,2q3.18.39,6.26.82c4.71.64,8.77,1.33,13.07,2.06C330.36,92.42,337.69,94,343.93,95.63Z" style="fill:url(#a6b2e73b-dee3-44e1-9b85-24eae4a6c8c3)"/></g><path d="M327.65,104.27a10.12,10.12,0,0,1-9.9,10L51.42,118.89a10.1,10.1,0,0,1-10.47-10l0-63.72A10.44,10.44,0,0,1,51.45,34.89L318,32.67a9.74,9.74,0,0,1,9.85,9.8Z" style="fill:#fff"/><path d="M321.38,103a6.38,6.38,0,0,1-6.25,6.35L50.22,113.75a6.39,6.39,0,0,1-6.61-6.32l0-63.45a6.6,6.6,0,0,1,6.62-6.49L315.33,35.2a6.17,6.17,0,0,1,6.23,6.2Z" style="fill:#f5f7fa"/><g style="opacity:0.30000000000000004"><path d="M283.7,66.15A2.89,2.89,0,0,1,280.6,69h-.14a2.81,2.81,0,0,1-3.09-2.75l0-12.64a3.05,3.05,0,0,1,3.1-3h.15a2.93,2.93,0,0,1,3.08,2.93Z" style="fill:url(#f5d17076-70c1-41b7-9cf7-b367d9fcf4e8)"/><path d="M308.93,65.9a2.92,2.92,0,0,1-3.09,2.86h-.14A2.83,2.83,0,0,1,302.63,66l0-12.64a3.05,3.05,0,0,1,3.08-3h.15a3,3,0,0,1,3.06,3Z" style="fill:url(#ad2d3cb6-257c-4f24-913b-4983c542561e)"/></g><path d="M283.63,94.46a3.39,3.39,0,0,1-3.1,3.41h-.14a3.28,3.28,0,0,1-3.09-3.31l0-13a3.38,3.38,0,0,1,3.11-3.38h.14a3.24,3.24,0,0,1,3.08,3.29Z" style="opacity:0.30000000000000004;fill:url(#e5e0b1e7-d2dd-4e88-be09-ce2821f349a7)"/><path d="M308.85,94.23c0,1.7-1.38,2.23-3.08,3.55h-.14a3.4,3.4,0,0,1-3.07-3.45l0-13.63c0-1.7,1.39-4,3.09-4h.14c1.7,0,3.07,2.24,3.07,3.94Z" style="opacity:0.30000000000000004;fill:url(#fe394f94-f243-43e6-8d91-2e130f560afd)"/><path d="M302.7,72.49a3.18,3.18,0,0,1-3.13,3.13l-12.13.17c-1.7,0-2.44-1.33-2.44-3v-.14c0-1.7.73-3.1,2.44-3.12l12.48-.17a2.79,2.79,0,0,1,2.78,3Z" style="opacity:0.30000000000000004;fill:url(#e723b414-aac3-4931-a20c-02f80dff559f)"/><path d="M302.7,46.06a3.14,3.14,0,0,1-3.09,3.12l-12.15.13c-1.71,0-2.46-1.34-2.46-3.05v-.14c0-1.7.77-3.09,2.47-3.11l12.47-.13a2.78,2.78,0,0,1,2.76,3Z" style="opacity:0.30000000000000004;fill:url(#bdbb7620-a7b0-4e1f-b284-6add5d792cf0)"/><path d="M302.7,100.17a3.22,3.22,0,0,1-3.16,3.13l-12.79.2a3,3,0,0,1-3.11-3v-.15a3.12,3.12,0,0,1,3.08-3.11l12.84-.2a3.06,3.06,0,0,1,3.14,3Z" style="opacity:0.30000000000000004;fill:url(#ea009295-66f9-4e3e-8a87-c300dfd21a7c)"/><path d="M204.79,414.67a71.28,71.28,0,0,1-5.42,17.59c-.93,2-2,4.07-3.13,6.19L55,445.75c-19.1,1-35.44-13.51-35.44-32.06l.05-379C19.6,17.52,33.15,3.28,50.13,1c.41.13,1,.26,1.45.39C69.52,7,89.17,17.52,100.94,37.24c7.37,12.33,11.76,28.28,10.77,48.94a142,142,0,0,1-1.84,17q-.87,5.24-1.76,10.67-1.12,6.8-2.19,13.87c-1.14,7.54-2.18,15.28-3,23.09-.8,7.49-1.41,15.06-1.72,22.62-.05,1.46-.1,2.92-.14,4.38-.11,4.72-.1,9.43.07,14.1q.17,4.8.56,9.52c1.5,17.73,5.55,34.68,13.67,49.53,6.14,11.24,15.41,19.95,25.16,28.05,2.57,2.13,5.18,4.23,7.77,6.32a221.64,221.64,0,0,1,25,22.92l.55.61a131.89,131.89,0,0,1,10.29,12.92,98,98,0,0,1,9,16q1.44,3.21,2.65,6.51c1.41,3.77,2.63,7.64,3.69,11.58.47,1.77.94,3.56,1.38,5.38a1.29,1.29,0,0,1,0,.21,190.71,190.71,0,0,1,4.29,22.35A104.27,104.27,0,0,1,204.79,414.67Z" style="fill:#fff;opacity:0.30000000000000004;mix-blend-mode:soft-light"/><g style="mix-blend-mode:multiply"><path d="M101.73,195.94a7.12,7.12,0,0,1-7,7L48,204.15a6.73,6.73,0,0,1-7-6.67V180.2a7.16,7.16,0,0,1,7.06-7l46.79-1.08a6.71,6.71,0,0,1,7,6.65Z" style="fill:url(#a545db14-77e4-4f85-8c04-2543cc9097e9)"/><path d="M178.6,194a7,7,0,0,1-6.87,6.93l-46,1.21a6.64,6.64,0,0,1-6.93-6.62l0-17.14a7.07,7.07,0,0,1,7-7l46-1.05a6.61,6.61,0,0,1,6.85,6.6Z" style="fill:url(#ff0a3a18-b144-4599-8546-03c288e160f7)"/><path d="M251.69,192.12a7,7,0,0,1-6.77,6.88l-45.3,1.18a6.56,6.56,0,0,1-6.82-6.56l0-17a7,7,0,0,1,6.84-6.9l45.31-1a6.54,6.54,0,0,1,6.75,6.55Z" style="fill:url(#bc63303d-09e6-44bb-9ebd-c91a891ab3cf)"/><path d="M326.14,190.22a6.88,6.88,0,0,1-6.66,6.82l-44.58,1.17a6.47,6.47,0,0,1-6.7-6.51l0-16.87A6.92,6.92,0,0,1,275,168l44.58-1a6.45,6.45,0,0,1,6.63,6.5Z" style="fill:url(#b3bfad7d-72e1-4b1a-b823-938a08b23629)"/><path d="M101.68,251.07a7.16,7.16,0,0,1-7,7L48,259.59A6.69,6.69,0,0,1,40.9,253V235.71A7.22,7.22,0,0,1,48,228.65l46.77-1.34a6.66,6.66,0,0,1,7,6.6Z" style="fill:url(#b1fc7851-3fc6-4ef5-8b6f-fc9d989e646e)"/><path d="M178.52,248.66a7.09,7.09,0,0,1-6.87,7l-46,1.47a6.6,6.6,0,0,1-6.93-6.57l0-17.12a7.11,7.11,0,0,1,7-7l46-1.32a6.56,6.56,0,0,1,6.85,6.55Z" style="fill:url(#b733db93-0f8b-46a5-af8d-f156229249f1)"/><path d="M251.57,246.38a7,7,0,0,1-6.77,6.91l-45.28,1.45a6.52,6.52,0,0,1-6.82-6.52l0-17a7.05,7.05,0,0,1,6.85-6.94l45.28-1.3a6.47,6.47,0,0,1,6.74,6.5Z" style="fill:url(#bc80688b-b6be-449d-b746-7c54573d7a69)"/><path d="M326,244.05a6.94,6.94,0,0,1-6.67,6.85l-44.55,1.43a6.43,6.43,0,0,1-6.7-6.47l0-16.85a7,7,0,0,1,6.74-6.88l44.56-1.28A6.4,6.4,0,0,1,326,227.3Z" style="fill:url(#f5192c17-d4ce-46f6-ad59-0505eac87f9a)"/><path d="M101.64,304.86a7.22,7.22,0,0,1-7,7.06l-46.73,1.76a6.64,6.64,0,0,1-7-6.57V289.86a7.25,7.25,0,0,1,7-7.08l46.75-1.61a6.6,6.6,0,0,1,7,6.56Z" style="fill:url(#ad71c146-293e-4959-9079-e90f00368afe)"/><path d="M178.43,302a7.13,7.13,0,0,1-6.86,7l-46,1.73a6.54,6.54,0,0,1-6.92-6.52v-17.1a7.18,7.18,0,0,1,6.95-7l46-1.58a6.51,6.51,0,0,1,6.85,6.5Z" style="fill:url(#b2474afb-5ef6-44d3-aa51-c9faf39b9c59)"/><path d="M251.45,299.32a7.06,7.06,0,0,1-6.77,6.94L199.43,308a6.48,6.48,0,0,1-6.82-6.47l0-17a7.09,7.09,0,0,1,6.84-7L244.75,276a6.43,6.43,0,0,1,6.74,6.45Z" style="fill:url(#f27b0809-c85d-4cb7-a8a2-15650fa41601)"/><path d="M325.83,296.57a7,7,0,0,1-6.66,6.88l-44.53,1.68a6.38,6.38,0,0,1-6.7-6.42l0-16.84a7,7,0,0,1,6.74-6.91l44.54-1.53a6.34,6.34,0,0,1,6.62,6.4Z" style="fill:url(#faa4ba59-788f-4d6f-95cf-fc6e9a012f29)"/><path d="M101.59,357.33a7.25,7.25,0,0,1-7,7.09l-46.71,2a6.59,6.59,0,0,1-7-6.53V342.68a7.3,7.3,0,0,1,7.05-7.12l46.72-1.87a6.56,6.56,0,0,1,7,6.52Z" style="fill:url(#ff7de11b-fdaa-46d5-9450-c2ec0d039d28)"/><path d="M178.35,354.06a7.17,7.17,0,0,1-6.86,7l-45.95,2a6.52,6.52,0,0,1-6.93-6.48l0-17.09a7.2,7.2,0,0,1,6.94-7.05l46-1.84a6.47,6.47,0,0,1,6.85,6.46Z" style="fill:url(#b0a3f649-f3fa-4f7d-8908-27df4fa74316)"/><path d="M251.33,351a7.11,7.11,0,0,1-6.76,7l-45.23,1.95a6.42,6.42,0,0,1-6.82-6.42l0-17a7.13,7.13,0,0,1,6.84-7l45.25-1.81a6.38,6.38,0,0,1,6.73,6.41Z" style="fill:url(#bf80ff30-1a90-41d5-afb4-5223438967d0)"/><path d="M101.54,413.57a7.3,7.3,0,0,1-7,7.13L47.89,423a6.55,6.55,0,0,1-7-6.48V399.31a7.35,7.35,0,0,1,7-7.16L94.6,390a6.5,6.5,0,0,1,7,6.46Z" style="fill:url(#a72af26a-b815-4333-b55f-a2ad573255d0)"/><path d="M178.26,409.85a7.2,7.2,0,0,1-6.86,7.06l-45.93,2.27a6.46,6.46,0,0,1-6.92-6.43l0-17.07a7.27,7.27,0,0,1,6.94-7.1l45.94-2.11a6.42,6.42,0,0,1,6.84,6.42Z" style="fill:url(#a7683cf9-ec24-4093-af05-8e8e0e45f21c)"/><path d="M251.21,406.31a7.15,7.15,0,0,1-6.76,7l-45.21,2.22a6.36,6.36,0,0,1-6.81-6.38l0-16.94a7.17,7.17,0,0,1,6.83-7l45.23-2.08a6.34,6.34,0,0,1,6.73,6.37Z" style="fill:url(#be09af80-9cd7-4acb-b43d-a8ed86841ca4)"/><path d="M318.89,324.72l-44.53,1.78c-3.7.15-6.5,4.26-6.5,7.94l0,9.48,0,7.91-.08,35.72,0,10.5v6.87c0,3.68,2.76,7.12,6.46,6.93l44.49-2.19c3.67-.18,6.88-3.89,6.89-7.55l0-6.82,0-10.44.1-35.49,0-7.86,0-9.42C325.74,328.42,322.56,324.57,318.89,324.72Z" style="fill:url(#b22ba1f9-e4d2-49ca-a6a0-5b7435996c55)"/></g><path d="M104.36,195.87a7.12,7.12,0,0,1-7,7l-46.75,1.22a6.73,6.73,0,0,1-7.05-6.66V180.14a7.16,7.16,0,0,1,7.06-7l46.77-1.07a6.69,6.69,0,0,1,7,6.65Z" style="fill:url(#b1a4cb2d-641f-4911-998e-7b64c8fd171f)"/><path d="M178.6,194a7,7,0,0,1-6.87,6.93l-46,1.21a6.64,6.64,0,0,1-6.93-6.62l0-17.14a7.07,7.07,0,0,1,7-7l46-1.05a6.61,6.61,0,0,1,6.85,6.6Z" style="fill:url(#bdaf97a5-593e-4c66-8fc5-2f8c7c1a2978)"/><path d="M254.23,192.05a7,7,0,0,1-6.77,6.88l-45.27,1.18a6.56,6.56,0,0,1-6.82-6.56l0-17a7,7,0,0,1,6.85-6.9l45.28-1a6.53,6.53,0,0,1,6.74,6.55Z" style="fill:url(#b66d5597-05a0-421f-be8d-113bc4ecf7a6)"/><path d="M328.65,190.16A6.89,6.89,0,0,1,322,197l-44.54,1.16a6.48,6.48,0,0,1-6.71-6.51l0-16.86a6.92,6.92,0,0,1,6.74-6.84l44.56-1a6.44,6.44,0,0,1,6.63,6.49Z" style="fill:url(#a7cdaa0d-2c0d-4cb8-aed0-27db1cd94216)"/><path d="M104.31,251a7.17,7.17,0,0,1-7,7L50.6,259.5a6.67,6.67,0,0,1-7-6.61V235.63a7.2,7.2,0,0,1,7.06-7l46.74-1.35a6.64,6.64,0,0,1,7,6.61Z" style="fill:url(#b0274a0d-58b0-4d16-bee8-4c64cab3a40c)"/><path d="M178.52,248.66a7.09,7.09,0,0,1-6.87,7l-46,1.47a6.6,6.6,0,0,1-6.93-6.57l0-17.12a7.11,7.11,0,0,1,7-7l46-1.32a6.56,6.56,0,0,1,6.85,6.55Z" style="fill:url(#a5774f4f-3dd9-4b90-b389-373293d8a05a)"/><path d="M254.11,246.3a7,7,0,0,1-6.77,6.9l-45.25,1.45a6.5,6.5,0,0,1-6.81-6.51l0-17a7,7,0,0,1,6.84-6.93l45.26-1.3a6.48,6.48,0,0,1,6.74,6.5Z" style="fill:url(#a9d71262-ccef-4f8d-9b11-8f5f922e6d0d)"/><path d="M328.49,244a6.93,6.93,0,0,1-6.66,6.85l-44.53,1.42a6.42,6.42,0,0,1-6.7-6.46l0-16.85a7,7,0,0,1,6.74-6.87l44.53-1.29a6.41,6.41,0,0,1,6.63,6.45Z" style="fill:url(#b646d71f-b7c6-4e43-9c65-2ac2e45da865)"/><path d="M104.26,304.77a7.2,7.2,0,0,1-7,7.05l-46.71,1.76a6.63,6.63,0,0,1-7-6.57V289.77a7.25,7.25,0,0,1,7.05-7.08l46.72-1.61a6.6,6.6,0,0,1,7,6.55Z" style="fill:url(#b2e158c1-f0da-4702-8d33-2ad6911057c6)"/><path d="M178.43,302a7.13,7.13,0,0,1-6.86,7l-46,1.73a6.54,6.54,0,0,1-6.92-6.52v-17.1a7.18,7.18,0,0,1,6.95-7l46-1.58a6.51,6.51,0,0,1,6.85,6.5Z" style="fill:url(#fa11c419-c614-4d9a-ae47-0be8f5353156)"/><path d="M254,299.22a7,7,0,0,1-6.76,6.94L202,307.87a6.46,6.46,0,0,1-6.81-6.47l0-17a7.07,7.07,0,0,1,6.83-7l45.24-1.56a6.43,6.43,0,0,1,6.74,6.45Z" style="fill:url(#f5419e55-e8bb-41aa-9046-62af054903b0)"/><path d="M328.33,296.47a7,7,0,0,1-6.65,6.89L277.17,305a6.38,6.38,0,0,1-6.7-6.42l0-16.83a7,7,0,0,1,6.74-6.9l44.51-1.54a6.34,6.34,0,0,1,6.62,6.41Z" style="fill:url(#b10d6371-f6ab-4a3d-b05a-d62ef81923e4)"/><path d="M104.21,357.22a7.25,7.25,0,0,1-7,7.08l-46.68,2a6.58,6.58,0,0,1-7-6.52V342.57a7.28,7.28,0,0,1,7-7.11l46.7-1.87a6.55,6.55,0,0,1,7,6.51Z" style="fill:url(#fe36aac7-5cdd-4658-9f54-6cf3fc4b663a)"/><path d="M178.35,354.06a7.17,7.17,0,0,1-6.86,7l-45.95,2a6.52,6.52,0,0,1-6.93-6.48l0-17.09a7.2,7.2,0,0,1,6.94-7.05l46-1.84a6.47,6.47,0,0,1,6.85,6.46Z" style="fill:url(#b12c6bca-bf44-4479-ae79-7b94dbbe3baa)"/><path d="M253.87,350.84a7.11,7.11,0,0,1-6.76,7l-45.21,1.95a6.4,6.4,0,0,1-6.8-6.42l0-17a7.11,7.11,0,0,1,6.83-7l45.22-1.81a6.38,6.38,0,0,1,6.73,6.41Z" style="fill:url(#ff4f6e1c-3b6a-40c6-86d0-fb4a6359550f)"/><path d="M104.16,413.45a7.3,7.3,0,0,1-7,7.12l-46.66,2.3a6.54,6.54,0,0,1-7-6.48V399.18a7.33,7.33,0,0,1,7-7.15l46.67-2.14a6.5,6.5,0,0,1,7,6.46Z" style="fill:url(#aadb770d-07f0-4746-84e1-fb0abdd4ff0b)"/><path d="M178.26,409.85a7.2,7.2,0,0,1-6.86,7.06l-45.93,2.27a6.46,6.46,0,0,1-6.92-6.43l0-17.07a7.27,7.27,0,0,1,6.94-7.1l45.94-2.11a6.42,6.42,0,0,1,6.84,6.42Z" style="fill:url(#edc29975-fece-4e91-92ed-908196aa3152)"/><path d="M253.75,406.19a7.14,7.14,0,0,1-6.76,7l-45.18,2.23A6.37,6.37,0,0,1,195,409l0-16.94a7.18,7.18,0,0,1,6.83-7l45.2-2.08a6.34,6.34,0,0,1,6.73,6.37Z" style="fill:url(#b284ab26-18d3-4b80-bc2e-2599e63ac46f)"/><path d="M321.48,324.61,277,326.39c-3.7.15-6.58,4.27-6.59,7.95l0,9.47v7.91l-.09,35.71,0,10.5v6.86c0,3.68,2.85,7.12,6.55,6.93l44.47-2.19c3.66-.18,6.77-3.88,6.78-7.54l0-6.82,0-10.43.1-35.49,0-7.86,0-9.41C328.24,328.32,325.15,324.47,321.48,324.61Z" style="fill:url(#a13ea7f7-b98e-41cf-939a-f3d1009fbd15)"/></g></g></svg>