<svg width="50" height="50" viewBox="0 0 50 50" fill="none" xmlns="http://www.w3.org/2000/svg">
<circle cx="25" cy="25" r="25" fill="#003764"/>
<path d="M43.9141 21.0938H33.9141C33.7422 21.0938 33.6016 21.2344 33.6016 21.4062V23.2812C33.6016 23.4531 33.7422 23.5938 33.9141 23.5938H43.9141C44.0859 23.5938 44.2266 23.4531 44.2266 23.2812V21.4062C44.2266 21.2344 44.0859 21.0938 43.9141 21.0938ZM38.6797 26.4062H33.9141C33.7422 26.4062 33.6016 26.5469 33.6016 26.7188V28.5938C33.6016 28.7656 33.7422 28.9062 33.9141 28.9062H38.6797C38.8516 28.9062 38.9922 28.7656 38.9922 28.5938V26.7188C38.9922 26.5469 38.8516 26.4062 38.6797 26.4062ZM25.6445 17.5977H23.9531C23.7109 17.5977 23.5156 17.793 23.5156 18.0352V27.7227C23.5156 27.8633 23.582 27.9922 23.6953 28.0742L29.5117 32.3164C29.707 32.457 29.9805 32.418 30.1211 32.2227L31.125 30.8516V30.8477C31.2656 30.6523 31.2227 30.3789 31.0273 30.2383L26.0781 26.6602V18.0352C26.082 17.793 25.8828 17.5977 25.6445 17.5977Z" fill="#96E6B3"/>
<path d="M38.4375 31.3242H36.1797C35.9609 31.3242 35.7539 31.4375 35.6367 31.625C35.1406 32.4101 34.5625 33.1367 33.8984 33.8008C32.7539 34.9453 31.4219 35.8437 29.9414 36.4687C28.4062 37.1172 26.7773 37.4453 25.0977 37.4453C23.4141 37.4453 21.7852 37.1172 20.2539 36.4687C18.7734 35.8437 17.4414 34.9453 16.2969 33.8008C15.1523 32.6562 14.2539 31.3242 13.6289 29.8437C12.9805 28.3125 12.6523 26.6836 12.6523 25C12.6523 23.3164 12.9805 21.6914 13.6289 20.1562C14.2539 18.6758 15.1523 17.3437 16.2969 16.1992C17.4414 15.0547 18.7734 14.1562 20.2539 13.5312C21.7852 12.8828 23.418 12.5547 25.0977 12.5547C26.7812 12.5547 28.4102 12.8828 29.9414 13.5312C31.4219 14.1562 32.7539 15.0547 33.8984 16.1992C34.5625 16.8633 35.1406 17.5898 35.6367 18.375C35.7539 18.5625 35.9609 18.6758 36.1797 18.6758H38.4375C38.707 18.6758 38.8789 18.3945 38.7578 18.1562C36.2109 13.0898 31.0469 9.79685 25.2812 9.73044C16.8398 9.62497 9.82812 16.5351 9.8125 24.9687C9.79687 33.4179 16.6445 40.2734 25.0937 40.2734C30.9336 40.2734 36.1836 36.9687 38.7578 31.8437C38.8789 31.6054 38.7031 31.3242 38.4375 31.3242Z" fill="#96E6B3"/>
</svg>
