<svg width="40" height="40" viewBox="0 0 40 40" fill="none" xmlns="http://www.w3.org/2000/svg">
<path d="M36.9141 16.0938H26.9141C26.7422 16.0938 26.6016 16.2344 26.6016 16.4062V18.2812C26.6016 18.4531 26.7422 18.5938 26.9141 18.5938H36.9141C37.0859 18.5938 37.2266 18.4531 37.2266 18.2812V16.4062C37.2266 16.2344 37.0859 16.0938 36.9141 16.0938ZM31.6797 21.4062H26.9141C26.7422 21.4062 26.6016 21.5469 26.6016 21.7188V23.5938C26.6016 23.7656 26.7422 23.9062 26.9141 23.9062H31.6797C31.8516 23.9062 31.9922 23.7656 31.9922 23.5938V21.7188C31.9922 21.5469 31.8516 21.4062 31.6797 21.4062ZM18.6445 12.5977H16.9531C16.7109 12.5977 16.5156 12.793 16.5156 13.0352V22.7227C16.5156 22.8633 16.582 22.9922 16.6953 23.0742L22.5117 27.3164C22.707 27.457 22.9805 27.418 23.1211 27.2227L24.125 25.8516V25.8477C24.2656 25.6523 24.2227 25.3789 24.0273 25.2383L19.0781 21.6602V13.0352C19.082 12.793 18.8828 12.5977 18.6445 12.5977Z" fill="#96E6B3"/>
<path d="M31.4375 26.3242H29.1797C28.9609 26.3242 28.7539 26.4375 28.6367 26.625C28.1406 27.4101 27.5625 28.1367 26.8984 28.8008C25.7539 29.9453 24.4219 30.8437 22.9414 31.4687C21.4062 32.1172 19.7773 32.4453 18.0977 32.4453C16.4141 32.4453 14.7852 32.1172 13.2539 31.4687C11.7734 30.8437 10.4414 29.9453 9.29687 28.8008C8.15234 27.6562 7.2539 26.3242 6.6289 24.8437C5.98046 23.3125 5.65234 21.6836 5.65234 20C5.65234 18.3164 5.98046 16.6914 6.6289 15.1562C7.2539 13.6758 8.15234 12.3437 9.29687 11.1992C10.4414 10.0547 11.7734 9.15622 13.2539 8.53122C14.7852 7.88278 16.418 7.55466 18.0977 7.55466C19.7812 7.55466 21.4102 7.88278 22.9414 8.53122C24.4219 9.15622 25.7539 10.0547 26.8984 11.1992C27.5625 11.8633 28.1406 12.5898 28.6367 13.375C28.7539 13.5625 28.9609 13.6758 29.1797 13.6758H31.4375C31.707 13.6758 31.8789 13.3945 31.7578 13.1562C29.2109 8.08981 24.0469 4.79685 18.2812 4.73044C9.83984 4.62497 2.82812 11.5351 2.8125 19.9687C2.79687 28.4179 9.64453 35.2734 18.0937 35.2734C23.9336 35.2734 29.1836 31.9687 31.7578 26.8437C31.8789 26.6054 31.7031 26.3242 31.4375 26.3242Z" fill="#96E6B3"/>
</svg>
