<svg id="f4280ae6-8ed2-41dc-b996-55224bc6e9cb" data-name="Calque 1" xmlns="http://www.w3.org/2000/svg" viewBox="0 0 217.15 226.88"><g id="b75031fa-a6c0-4d46-a01e-10de19511dd2" data-name="fusée"><path d="M132.82,163.59c-12.83-10.94-15.43-29-5.8-40.27s27.84-11.61,40.68-.68,5.8,40.27,5.8,40.27S145.66,174.52,132.82,163.59Z" transform="translate(0 0)" style="fill:#f2936c"/><path d="M132,157c-11.09-9.45-13.34-25-5-34.8s24.06-10,35.16-.58,5,34.8,5,34.8S143.12,166.44,132,157Z" transform="translate(0 0)" style="fill:#fad756"/><path d="M110.16,156c0,20.89,27,35.94,16.14,37.66C108.26,196.47,70,166.09,70,145.2s5.45-10.76,16.46-10.76S110.16,135.08,110.16,156Z" transform="translate(0 0)" style="fill:#9fd0ac"/><path d="M162.06,104c20.88.1,35.82,27.18,37.58,16.31,2.93-18-27.27-56.45-48.15-56.55s-10.79,5.4-10.84,16.41S141.18,103.88,162.06,104Z" transform="translate(0 0)" style="fill:#9fd0ac"/><path d="M155.41,142c-12.39,13.67-29.32,21.05-54.19,13.38a138,138,0,0,1-23.67-9.89A183.15,183.15,0,0,1,40,119C23.16,103.75,13.37,83.17,7.69,63.5c7-7.8,59.85-58.07,60.69-59.1,18.32,4.11,37.24,11.75,52.41,25.51a180.24,180.24,0,0,1,33,39.39,129.93,129.93,0,0,1,11,22.54C173,114.08,167,129.24,155.41,142Z" transform="translate(0 0)" style="fill:#eff4f9"/><path d="M68.39,4.38v0c-.84,1-53.67,51.3-60.69,59.1l-.06.06C1.06,46.57.05,22.19,0,9.71H0V9.11C0,5,.09,2.39.12,1.81V1.68l.44-.06.21,0h0l.23,0,.26,0A192,192,0,0,1,22.83,0H23C35.75-.2,52.28.55,68.39,4.38Z" transform="translate(0 0)" style="fill:#415b6b"/><circle cx="74.09" cy="66.72" r="32.28" style="fill:#415b6b"/><circle cx="74.09" cy="66.72" r="23.42" style="fill:#8fd4f6"/><path d="M164.81,91.84l-63.59,63.58a138,138,0,0,1-23.67-9.89L153.77,69.3A129.93,129.93,0,0,1,164.81,91.84Z" transform="translate(0 0)" style="fill:#9fd0ac"/><path d="M145.32,184.09l24,21.1c4,3.52,8,7,11.93,10.6s7.8,7.25,11.57,11l-.07.07c-4.15-3.34-8.15-6.85-12.17-10.34s-7.88-7.16-11.8-10.76l-23.5-21.62Z" transform="translate(0 0)" style="fill:#173860"/><path d="M182,131.87q5.76,4.9,11.47,9.87c1.91,1.65,3.85,3.25,5.68,5s3.64,3.5,5.32,5.4l-.07.07c-2.06-1.47-4-3.11-5.92-4.73s-3.71-3.41-5.55-5.14q-5.52-5.16-11-10.38Z" transform="translate(0 0)" style="fill:#173860"/><path d="M194.69,154.66q5.76,4.91,11.46,9.86c1.91,1.65,3.86,3.26,5.69,5s3.63,3.5,5.31,5.4l-.06.08c-2.07-1.48-4-3.11-5.92-4.73s-3.71-3.41-5.55-5.14q-5.53-5.16-11-10.39Z" transform="translate(0 0)" style="fill:#173860"/></g></svg>