<svg width="40" height="40" viewBox="0 0 40 40" fill="none" xmlns="http://www.w3.org/2000/svg">
<path d="M21.5417 18.4167L14.4583 11.3334L16.8333 9.00008L21.5417 13.7084L31 4.29175L33.3333 6.62508L21.5417 18.4167ZM23.3333 37.5001L11.6667 34.2501V36.6667H1.66666V18.3334H14.9167L25.25 22.1667C26.1667 22.5001 26.91 23.0834 27.48 23.9167C28.0489 24.7501 28.3333 25.6667 28.3333 26.6667H31.6667C33.0556 26.6667 34.2361 27.1251 35.2083 28.0417C36.1806 28.9584 36.6667 30.1667 36.6667 31.6667V33.3334L23.3333 37.5001ZM5 33.3334H8.33333V21.6667H5V33.3334ZM23.25 34.0001L33.1667 30.9167C33.0833 30.6112 32.8956 30.3817 32.6033 30.2284C32.3122 30.0762 32 30.0001 31.6667 30.0001H23.6667C22.8056 30.0001 22.0278 29.9445 21.3333 29.8334C20.6389 29.7223 19.8889 29.5279 19.0833 29.2501L16.2083 28.2501L17.1667 25.0834L20.5 26.1667C21 26.3334 21.5833 26.4584 22.25 26.5417C22.9167 26.6251 23.8333 26.6667 25 26.6667C25 26.3612 24.91 26.0695 24.73 25.7917C24.5489 25.514 24.3333 25.3334 24.0833 25.2501L14.3333 21.6667H11.6667V30.8334L23.25 34.0001Z" fill="#96E6B3"/>
</svg>
