<svg width="50" height="50" viewBox="0 0 50 50" fill="none" xmlns="http://www.w3.org/2000/svg">
<circle cx="25" cy="25" r="25" fill="#003764"/>
<path d="M26.5417 23.4167L19.4583 16.3334L21.8333 14.0001L26.5417 18.7084L36 9.29175L38.3333 11.6251L26.5417 23.4167ZM28.3333 42.5001L16.6667 39.2501V41.6667H6.66666V23.3334H19.9167L30.25 27.1667C31.1667 27.5001 31.91 28.0834 32.48 28.9167C33.0489 29.7501 33.3333 30.6667 33.3333 31.6667H36.6667C38.0556 31.6667 39.2361 32.1251 40.2083 33.0417C41.1806 33.9584 41.6667 35.1667 41.6667 36.6667V38.3334L28.3333 42.5001ZM10 38.3334H13.3333V26.6667H10V38.3334ZM28.25 39.0001L38.1667 35.9167C38.0833 35.6112 37.8956 35.3817 37.6033 35.2284C37.3122 35.0762 37 35.0001 36.6667 35.0001H28.6667C27.8056 35.0001 27.0278 34.9445 26.3333 34.8334C25.6389 34.7223 24.8889 34.5279 24.0833 34.2501L21.2083 33.2501L22.1667 30.0834L25.5 31.1667C26 31.3334 26.5833 31.4584 27.25 31.5417C27.9167 31.6251 28.8333 31.6667 30 31.6667C30 31.3612 29.91 31.0695 29.73 30.7917C29.5489 30.514 29.3333 30.3334 29.0833 30.2501L19.3333 26.6667H16.6667V35.8334L28.25 39.0001Z" fill="#96E6B3"/>
</svg>
