<svg width="50" height="45" viewBox="0 0 50 45" fill="none" xmlns="http://www.w3.org/2000/svg">
<g clip-path="url(#clip0_67_85)">
<path d="M24.3377 13.2214L8.33334 26.3772V40.5761C8.33334 40.9437 8.47967 41.2963 8.74013 41.5563C9.0006 41.8162 9.35387 41.9623 9.72223 41.9623L19.4497 41.9372C19.8168 41.9353 20.1683 41.7885 20.4273 41.5287C20.6862 41.2689 20.8316 40.9174 20.8316 40.551V32.259C20.8316 31.8913 20.9779 31.5387 21.2384 31.2788C21.4989 31.0188 21.8521 30.8728 22.2205 30.8728H27.776C28.1444 30.8728 28.4977 31.0188 28.7581 31.2788C29.0186 31.5387 29.1649 31.8913 29.1649 32.259V40.5449C29.1644 40.7273 29.1999 40.908 29.2694 41.0767C29.3389 41.2454 29.4412 41.3987 29.5702 41.5279C29.6992 41.6571 29.8525 41.7596 30.0213 41.8295C30.1901 41.8994 30.3711 41.9354 30.5538 41.9354L40.2778 41.9623C40.6461 41.9623 40.9994 41.8162 41.2599 41.5563C41.5203 41.2963 41.6667 40.9437 41.6667 40.5761V26.3677L25.6658 13.2214C25.4777 13.0701 25.2434 12.9875 25.0017 12.9875C24.7601 12.9875 24.5258 13.0701 24.3377 13.2214ZM49.6181 22.1632L42.3611 16.193V4.19296C42.3611 3.91723 42.2514 3.6528 42.056 3.45782C41.8607 3.26285 41.5957 3.15332 41.3194 3.15332H36.4583C36.1821 3.15332 35.9171 3.26285 35.7218 3.45782C35.5264 3.6528 35.4167 3.91723 35.4167 4.19296V10.4837L27.645 4.10199C26.8991 3.48945 25.9633 3.15454 24.9974 3.15454C24.0315 3.15454 23.0956 3.48945 22.3498 4.10199L0.37674 22.1632C0.27126 22.2502 0.183993 22.3571 0.119923 22.4778C0.0558539 22.5985 0.0162384 22.7306 0.00334029 22.8665C-0.00955781 23.0025 0.00451434 23.1397 0.0447527 23.2702C0.084991 23.4008 0.150607 23.5221 0.237851 23.6273L2.45139 26.3131C2.5384 26.4187 2.64542 26.5061 2.76632 26.5703C2.88723 26.6346 3.01964 26.6744 3.15599 26.6876C3.29233 26.7007 3.42993 26.6868 3.56091 26.6468C3.69188 26.6068 3.81366 26.5414 3.91927 26.4543L24.3377 9.66928C24.5258 9.51794 24.7601 9.43542 25.0017 9.43542C25.2434 9.43542 25.4777 9.51794 25.6658 9.66928L46.0851 26.4543C46.1905 26.5414 46.3121 26.6069 46.4429 26.647C46.5737 26.6872 46.7111 26.7012 46.8474 26.6883C46.9836 26.6755 47.116 26.6359 47.2369 26.572C47.3578 26.508 47.4649 26.4209 47.5521 26.3157L49.7656 23.6299C49.8528 23.5241 49.9181 23.4021 49.9579 23.271C49.9977 23.1399 50.0111 23.0022 49.9973 22.8659C49.9836 22.7296 49.9431 22.5974 49.878 22.4768C49.8129 22.3562 49.7246 22.2496 49.6181 22.1632Z" fill="#EF7F80"/>
</g>
<defs>
<clipPath id="clip0_67_85">
<rect width="50" height="44.358" fill="white" transform="translate(0 0.376465)"/>
</clipPath>
</defs>
</svg>
