<svg xmlns="http://www.w3.org/2000/svg" xmlns:xlink="http://www.w3.org/1999/xlink" viewBox="0 0 2099.84 2572.08"><defs><linearGradient id="a08ca728-3173-4f25-8e42-8869f4b6789d" x1="1786.03" y1="4093.55" x2="145.24" y2="5582.55" gradientTransform="translate(-3996.2 2249.59) rotate(-90)" gradientUnits="userSpaceOnUse"><stop offset="0" stop-color="#26264f"/><stop offset="1" stop-color="#444b8c"/></linearGradient><linearGradient id="f84a8508-fc82-441f-b9a1-6c5f1e284db0" x1="77.99" y1="1257.99" x2="1949.25" y2="1205.85" gradientUnits="userSpaceOnUse"><stop offset="0" stop-color="#444b8c"/><stop offset="1" stop-color="#26264f"/></linearGradient><linearGradient id="b6389030-7dc6-45b3-a0f8-f0e7d20b7dd6" x1="546.51" y1="5398.51" x2="1473.46" y2="4265.57" gradientTransform="translate(-3996.2 2249.59) rotate(-90)" xlink:href="#f84a8508-fc82-441f-b9a1-6c5f1e284db0"/><linearGradient id="ac5a32f2-dde7-4208-a333-33353e300d03" x1="934.95" y1="2175.13" x2="904.01" y2="2410.76" xlink:href="#f84a8508-fc82-441f-b9a1-6c5f1e284db0"/><linearGradient id="ad6cf40c-2aea-4b7b-8a00-eaf5295a9183" x1="913.33" y1="133.62" x2="930.86" y2="152.94" gradientUnits="userSpaceOnUse"><stop offset="0" stop-color="#ff9085"/><stop offset="1" stop-color="#fb6fbb"/></linearGradient><linearGradient id="bc2544ec-a0c6-495e-8e01-10b577880413" x1="189.18" y1="1159.74" x2="1571.28" y2="1159.74" gradientUnits="userSpaceOnUse"><stop offset="0" stop-color="#96e6b3" stop-opacity="0.5"/><stop offset="1" stop-color="#003764"/></linearGradient><linearGradient id="b7cd25e4-6621-4800-8aac-89fe9a2cc047" x1="237.77" y1="1043.94" x2="1619.1" y2="1043.94" gradientUnits="userSpaceOnUse"><stop offset="0" stop-color="#96e6b3" stop-opacity="0.8"/><stop offset="1" stop-color="#003764"/></linearGradient><linearGradient id="b1732141-8221-481d-8f87-9bc7c199132c" x1="331.16" y1="202.58" x2="957.29" y2="202.58" gradientUnits="userSpaceOnUse"><stop offset="0.59" stop-color="aqua"/><stop offset="1" stop-color="#0071bc"/></linearGradient><linearGradient id="ac6c2dcd-05d6-47f8-8798-0566436da892" x1="507.05" y1="640.37" x2="708.39" y2="640.37" xlink:href="#b1732141-8221-481d-8f87-9bc7c199132c"/><linearGradient id="ab02bf34-3831-4e28-9c0a-4b99eae39ec8" x1="505.84" y1="1080.83" x2="707.41" y2="1080.83" xlink:href="#b1732141-8221-481d-8f87-9bc7c199132c"/><linearGradient id="aa805517-8d5e-4f59-bd66-3cb3680afc3e" x1="504.63" y1="1522.23" x2="706.43" y2="1522.23" xlink:href="#b1732141-8221-481d-8f87-9bc7c199132c"/><linearGradient id="ba2ffde1-72b9-4bc1-b061-3aefba5adbd7" x1="2179.52" y1="1401.05" x2="1881.1" y2="1677.99" xlink:href="#ad6cf40c-2aea-4b7b-8a00-eaf5295a9183"/><linearGradient id="b5b5a362-1839-4f5d-9f97-0f556dcca0e3" x1="2211.78" y1="1415.87" x2="1911.66" y2="1694.38" xlink:href="#ad6cf40c-2aea-4b7b-8a00-eaf5295a9183"/><linearGradient id="b3572f55-b94e-4bfc-bbf3-4c7bbe184998" x1="1824.8" y1="1694.71" x2="837.27" y2="2669.9" xlink:href="#ad6cf40c-2aea-4b7b-8a00-eaf5295a9183"/><linearGradient id="a0a6f819-5446-4b8e-a20f-2e47b133251b" x1="1753.43" y1="1675.31" x2="802.69" y2="2614.17" xlink:href="#ad6cf40c-2aea-4b7b-8a00-eaf5295a9183"/></defs><g style="isolation:isolate"><g id="b17b303a-e167-4831-b107-8d7aca6be884" data-name="Illustration"><g id="ecd1c28c-149c-4865-a72a-301d8149e901" data-name="Customer service guide"><path d="M1690.83,2266.56c0,45.51-32.29,84.42-72.1,86.74L82.85,2443C37.24,2445.61,0,2408,0,2359V155.81C0,106.86,37.24,68.55,82.85,70.4l1535.88,62.24c39.81,1.61,72.1,39.94,72.1,85.45Z" style="fill:url(#a08ca728-3173-4f25-8e42-8869f4b6789d)"/><path d="M1735.92,2266.56c0,45.51-32.29,84.42-72.1,86.74L128,2443c-45.62,2.66-82.86-35-82.86-83.93V155.81c0-48.95,37.24-87.26,82.86-85.41l1535.87,62.24c39.81,1.61,72.1,39.94,72.1,85.45Z" style="fill:url(#f84a8508-fc82-441f-b9a1-6c5f1e284db0)"/><path d="M83.73,157.23V2356.9c0,26.16,19.82,46.25,44.22,44.87L1342.66,2333l321.16-18.19c21.33-1.21,38.59-22,38.59-46.37V216.86c0-24.4-17.26-44.85-38.59-45.68l-332.76-12.91L128,111.58C103.55,110.63,83.73,131.07,83.73,157.23Z" style="fill:url(#b6389030-7dc6-45b3-a0f8-f0e7d20b7dd6)"/><path d="M1681.13,2173.52a17.41,17.41,0,0,1-16.22,17.29L126.7,2269.47c-10.22.52-18.54-7-18.54-16.67V157.27c0-9.71,8.32-17.3,18.54-16.91L1664.91,198.2a17.14,17.14,0,0,1,16.22,17.07Z" style="fill:#d8dee8"/><path d="M1076.4,2309.9l-312.35,17.18c-16.69.91-30.25-10.67-30.25-25.87v-1.14c0-15.2,13.56-28.24,30.25-29.12l312.35-16.42c16.23-.86,29.37,10.58,29.37,25.54v1.12C1105.77,2296.15,1092.63,2309,1076.4,2309.9Z" style="fill:url(#ac5a32f2-dde7-4208-a333-33353e300d03)"/><path d="M937.26,143c0,8.08-7.15,14.37-16,14s-16-7.18-16-15.28,7.17-14.38,16-14S937.26,134.9,937.26,143Z" style="fill:url(#ad6cf40c-2aea-4b7b-8a00-eaf5295a9183)"/><g style="opacity:0.30000000000000004;mix-blend-mode:screen"><path d="M1329.4,2122.37c-6.26-134.25,143-213,128.66-402.37-1.29-17.09-14.63-163.65-132.58-263-105.93-89.21-195-55.64-391-126.8-137.4-49.86-291.87-105.93-354.34-218.41C456.07,888.42,810.6,665.31,738,376.12c-20.8-82.86-79.5-184.43-234.56-290.5L128,70.4c-45.62-1.85-82.86,36.46-82.86,85.41V2359c0,48.95,37.24,86.6,82.86,83.94l1399.39-81.68C1378.29,2275.1,1332.66,2192.32,1329.4,2122.37Z" style="fill:#fff"/></g><polygon points="1571.28 2101.75 189.19 2203.68 196.61 115.81 1571.28 148.65 1571.28 2101.75" style="fill:url(#bc2544ec-a0c6-495e-8e01-10b577880413)"/><polygon points="907.68 408.62 281.83 402.12 282.38 228.16 907.96 239.74 907.68 408.62" style="fill:#fff"/><polygon points="644.48 849.26 443.62 851.41 444.21 631.99 644.96 632.02 644.48 849.26" style="fill:#fff"/><polygon points="1415.23 735.73 708.86 740.02 709.08 631.71 1415.27 631.1 1415.23 735.73" style="fill:#fff"/><polygon points="643.5 1287.73 442.41 1294.3 443.01 1074.4 643.99 1070.03 643.5 1287.73" style="fill:#fff"/><polygon points="1415.09 1157.95 707.95 1177.13 708.17 1068.59 1415.12 1053.11 1415.09 1157.95" style="fill:#fff"/><polygon points="642.52 1727.15 441.2 1738.15 441.8 1517.78 643 1508.98 642.52 1727.15" style="fill:#fff"/><polygon points="1414.94 1581.06 707.04 1615.19 707.26 1506.41 1414.97 1475.99 1414.94 1581.06" style="fill:#fff"/><path d="M1019.46,2139,190,2200.14l7-2087.88,512.41,12.25C609.19,296.83,486.93,641.06,836.56,963.69,1191.9,1291.57,1334.34,1792.83,1019.46,2139Z" style="fill:#fff;opacity:0.30000000000000004;mix-blend-mode:soft-light"/><polygon points="1619.1 32.84 1619.1 1985.96 1067.28 2026.69 237.77 2087.87 244.81 0 757.21 12.24 1619.1 32.84" style="fill:url(#b7cd25e4-6621-4800-8aac-89fe9a2cc047)"/><path d="M1067.28,2026.69l-829.51,61.18L244.81,0l512.4,12.24C657,184.57,534.76,528.8,884.39,851.42,1239.72,1179.3,1382.17,1680.56,1067.28,2026.69Z" style="fill:#fff;opacity:0.5;mix-blend-mode:soft-light"/><polygon points="957.01 292.81 331.16 286.32 331.71 112.35 957.29 123.93 957.01 292.81" style="opacity:0.6000000000000001;mix-blend-mode:multiply;fill:url(#b1732141-8221-481d-8f87-9bc7c199132c)"/><polygon points="707.91 747.93 507.05 750.08 507.64 530.66 708.39 530.69 707.91 747.93" style="opacity:0.6000000000000001;mix-blend-mode:multiply;fill:url(#ac6c2dcd-05d6-47f8-8798-0566436da892)"/><polygon points="1478.66 634.4 772.28 638.69 772.51 530.38 1478.69 529.77 1478.66 634.4" style="fill:#fff;opacity:0.5"/><polygon points="706.93 1186.4 505.84 1192.97 506.44 973.07 707.41 968.7 706.93 1186.4" style="opacity:0.6000000000000001;mix-blend-mode:multiply;fill:url(#ab02bf34-3831-4e28-9c0a-4b99eae39ec8)"/><polygon points="1478.51 1056.62 771.38 1075.8 771.6 967.26 1478.55 951.78 1478.51 1056.62" style="fill:#fff;opacity:0.5"/><polygon points="705.95 1625.82 504.63 1636.82 505.23 1416.44 706.43 1407.65 705.95 1625.82" style="opacity:0.6000000000000001;mix-blend-mode:multiply;fill:url(#aa805517-8d5e-4f59-bd66-3cb3680afc3e)"/><polygon points="1478.37 1479.72 770.47 1513.86 770.69 1405.08 1478.4 1374.66 1478.37 1479.72" style="fill:#fff;opacity:0.5"/><path d="M1237.08,1385.32V2486.11l774-50.12c17.58-1,31.21-13.32,31.21-28.13V1425.41c0-15.26-14.44-27.75-32.59-28.18Z" style="fill:url(#ba2ffde1-72b9-4bc1-b061-3aefba5adbd7)"/><path d="M1197.77,1417.87V2453.56l777.5-47.51c16.54-1,29.36-12.53,29.36-26.46V1455.24c0-14.36-13.59-26.11-30.66-26.51Z" style="fill:#f4f7fa;opacity:0.67"/><path d="M2011.28,1457.56h85.43a3.14,3.14,0,0,1,3.14,3.14v202.06a3.14,3.14,0,0,1-3.14,3.14h-85.43a0,0,0,0,1,0,0V1457.56A0,0,0,0,1,2011.28,1457.56Z" style="fill:url(#b5b5a362-1839-4f5d-9f97-0f556dcca0e3)"/><path d="M1188.91,1416.54V2458.43c0,15.93,13.81,29.48,32.53,31.92l625.17,81.49c19.61,2.13,37-10.71,37-27.33V1394c0-15.5-15.2-28-33.64-27.55L1226,1384.26C1205.33,1384.85,1188.91,1399.13,1188.91,1416.54Z" style="fill:url(#b3572f55-b94e-4bfc-bbf3-4c7bbe184998)"/><path d="M1372.31,1806.22l241.62,8.64v447l57.7,5.78v17.71l-295.51-30.32v-17l52.83,5.28v-418l-56.64-2.17Zm146.89-61.17c-35-.92-59.62-10.15-74.24-27.65s-21.82-38.77-21.82-64.09,7.9-46.14,23.76-62.56,40.3-24.77,73.3-24.77q50,0,76.41,22.88t26.53,65.56q0,42.52-25.51,67.36C1580.71,1738.24,1554.5,1746,1519.2,1745.05Z" style="fill:#fff"/><path d="M1479.44,2250.68c-9-121.67,80.6-150.71,65.49-292.67-21.87-205.59-223.57-274.2-206.83-443.37,5.23-52.81,30.05-98.25,59.79-135.28l-171.86,4.9c-20.7.59-37.12,14.87-37.12,32.28V2458.43c0,15.93,13.81,29.48,32.53,31.92l481.65,62.78C1535,2436.39,1485.52,2332.82,1479.44,2250.68Z" style="opacity:0.30000000000000004;mix-blend-mode:multiply;fill:url(#a0a6f819-5446-4b8e-a20f-2e47b133251b)"/></g></g></g></svg>