<svg width="40" height="40" viewBox="0 0 40 40" fill="none" xmlns="http://www.w3.org/2000/svg">
<g clip-path="url(#clip0_305_212)">
<path d="M23 2.8125C19.7689 2.81663 16.6714 4.102 14.3867 6.3867C12.102 8.67141 10.8166 11.7689 10.8125 15C10.8093 16.3451 11.0311 17.6812 11.4687 18.9531L2.34373 28.0938C2.25335 28.1772 2.18159 28.2788 2.13313 28.3919C2.08466 28.505 2.06059 28.627 2.06248 28.75V35C2.06248 35.2486 2.16125 35.4871 2.33707 35.6629C2.51288 35.8387 2.75134 35.9375 2.99998 35.9375H9.24998C9.49862 35.9375 9.73708 35.8387 9.91289 35.6629C10.0887 35.4871 10.1875 35.2486 10.1875 35V32.1875H13C13.2486 32.1875 13.4871 32.0887 13.6629 31.9129C13.8387 31.7371 13.9375 31.4986 13.9375 31.25V28.4375H16.75C16.873 28.4394 16.995 28.4153 17.1081 28.3669C17.2212 28.3184 17.3228 28.2466 17.4062 28.1562L19.0469 26.5312C20.3188 26.9689 21.6549 27.1907 23 27.1875C26.2323 27.1875 29.3322 25.9035 31.6178 23.6179C33.9034 21.3323 35.1875 18.2323 35.1875 15C35.1875 11.7677 33.9034 8.66774 31.6178 6.38214C29.3322 4.09654 26.2323 2.8125 23 2.8125ZM23 25.3125C21.6939 25.3136 20.3997 25.0643 19.1875 24.5781C19.0122 24.5058 18.8197 24.4866 18.6336 24.5227C18.4475 24.5588 18.2761 24.6487 18.1406 24.7812L16.3594 26.5625H13C12.7513 26.5625 12.5129 26.6613 12.3371 26.8371C12.1613 27.0129 12.0625 27.2514 12.0625 27.5V30.3125H9.24998C9.00134 30.3125 8.76288 30.4113 8.58707 30.5871C8.41125 30.7629 8.31248 31.0014 8.31248 31.25V34.0625H3.93748V29.1406L13.2187 19.8594C13.3513 19.7239 13.4412 19.5525 13.4773 19.3664C13.5134 19.1803 13.4941 18.9877 13.4219 18.8125C12.9357 17.6003 12.6864 16.3061 12.6875 15C12.6875 12.9604 13.2923 10.9666 14.4255 9.27068C15.5586 7.5748 17.1692 6.25302 19.0536 5.47249C20.9379 4.69196 23.0114 4.48774 25.0118 4.88565C27.0123 5.28356 28.8498 6.26573 30.292 7.70796C31.7342 9.15019 32.7164 10.9877 33.1143 12.9881C33.5122 14.9886 33.308 17.0621 32.5275 18.9464C31.747 20.8308 30.4252 22.4414 28.7293 23.5745C27.0334 24.7077 25.0396 25.3125 23 25.3125ZM27.6875 11.875C27.6875 12.184 27.5958 12.4861 27.4242 12.7431C27.2525 13 27.0084 13.2003 26.7229 13.3186C26.4374 13.4368 26.1232 13.4678 25.8202 13.4075C25.5171 13.3472 25.2386 13.1984 25.0201 12.9799C24.8016 12.7613 24.6528 12.4829 24.5925 12.1798C24.5322 11.8767 24.5632 11.5626 24.6814 11.2771C24.7997 10.9915 24.9999 10.7475 25.2569 10.5758C25.5139 10.4041 25.8159 10.3125 26.125 10.3125C26.5394 10.3125 26.9368 10.4771 27.2298 10.7701C27.5229 11.0632 27.6875 11.4606 27.6875 11.875Z" fill="#96E6B3"/>
</g>
<defs>
<clipPath id="clip0_305_212">
<rect width="40" height="40" fill="white"/>
</clipPath>
</defs>
</svg>
