<svg xmlns="http://www.w3.org/2000/svg" viewBox="0 0 111.04 113.53"><g style="isolation:isolate"><g id="fab7e875-0c7a-4fdb-95b6-cd271b1a3998" data-name="Calque 1"><g id="ec7c61ac-a534-422f-82c0-1818ffe9c1bd" data-name="loupe"><path d="M32.89,76.29,42.78,66,54,76.78,44.1,87.06a1.44,1.44,0,0,1-2.05,0h0a1.45,1.45,0,0,0-2,.05l-3.08,3.2a.76.76,0,0,0,0,1.09h0a.75.75,0,0,1,0,1.08l-21.3,22.16a6.55,6.55,0,0,1-8.89.63,6.41,6.41,0,0,1-.5-9.35L27.72,83.64a.78.78,0,0,1,1.09,0h0a.76.76,0,0,0,1.09,0L33,80.4a1.45,1.45,0,0,0,0-2.06h0A1.46,1.46,0,0,1,32.89,76.29Z" transform="translate(-4.48 -3.24)" style="fill:#3b8ede"/><circle cx="73.48" cy="45.27" r="42.03" transform="translate(-4.86 -2.63) rotate(-0.48)" style="fill:#3b8ede"/><circle cx="73.48" cy="45.27" r="36.79" transform="translate(-7.71 81.59) rotate(-58.91)" style="fill:#003764"/><path d="M68.09,17.74A28.06,28.06,0,1,0,101,39.88,28,28,0,0,0,68.09,17.74Zm2.55,13A14.81,14.81,0,1,1,59,48.12,14.81,14.81,0,0,1,70.64,30.74Z" transform="translate(-4.48 -3.24)" style="fill:#fff"/><path d="M63.53,19a28.47,28.47,0,0,1,4.56-1.3A28.05,28.05,0,0,1,101,39.88v0L88,42.4A14.8,14.8,0,0,0,70.64,30.74a14.13,14.13,0,0,0-2.43.7Z" transform="translate(-4.48 -3.24)" style="fill:#de6b88"/><g style="mix-blend-mode:screen"><path d="M83.52,23.66a2.4,2.4,0,0,0,.63.45,23.38,23.38,0,0,1,5.75,4.08,2.62,2.62,0,1,0,3.63-3.78,29,29,0,0,0-7-5,2.62,2.62,0,0,0-3,4.23Z" transform="translate(-4.48 -3.24)" style="fill:#38475c"/></g><g style="mix-blend-mode:screen"><path d="M52.7,28.93a2.61,2.61,0,0,0,3.7-.08,23.87,23.87,0,0,1,22.4-6.66,2.62,2.62,0,0,0,2.39-4.45A2.58,2.58,0,0,0,80,17.08a29.14,29.14,0,0,0-27.34,8.14A2.62,2.62,0,0,0,52.7,28.93Z" transform="translate(-4.48 -3.24)" style="fill:#38475c"/></g></g></g></g></svg>