<svg id="b6bb3b6f-bd59-4dfd-8566-510f296eb93c" data-name="Calque 1" xmlns="http://www.w3.org/2000/svg" viewBox="0 0 163.46 153.19"><path d="M143.08,52.69l3.13-.9a17.93,17.93,0,0,0-.14-4.34l-3.19-.68a14.81,14.81,0,0,0-.57-1.86l2.27-2.34a18.18,18.18,0,0,0-2.3-3.68l-3.1,1a15,15,0,0,0-1.42-1.33l.79-3.16a17.76,17.76,0,0,0-3.83-2l-2.19,2.42c-.45-.14-.91-.25-1.39-.35l-.49-.08-.9-3.14a17.93,17.93,0,0,0-4.34.14l-.68,3.19a14.66,14.66,0,0,0-1.85.57l-2.35-2.27a18.18,18.18,0,0,0-3.68,2.3l1,3.11a14.68,14.68,0,0,0-1.32,1.41l-3.17-.79a17.76,17.76,0,0,0-2,3.83l2.42,2.19c-.14.45-.25.91-.35,1.39,0,.16-.06.33-.08.49l-3.14.9a17.93,17.93,0,0,0,.14,4.34l3.19.68a14.66,14.66,0,0,0,.57,1.85l-2.27,2.35a18.46,18.46,0,0,0,2.3,3.68l3.11-1a16.16,16.16,0,0,0,1.41,1.33l-.79,3.16a18,18,0,0,0,3.83,2l2.19-2.42c.45.14.92.25,1.39.35l.49.08.9,3.14a17.93,17.93,0,0,0,4.34-.14l.69-3.19a15.19,15.19,0,0,0,1.85-.57l2.34,2.27a18.53,18.53,0,0,0,3.69-2.3l-1-3.1a16.2,16.2,0,0,0,1.33-1.42l3.16.79a18,18,0,0,0,2-3.83l-2.42-2.19a12.84,12.84,0,0,0,.35-1.39Zm-2.88-.07a12.25,12.25,0,1,1-9.62-14.4A12.25,12.25,0,0,1,140.2,52.62Z" style="fill:#ee767a"/><path d="M88.92,62.4l15.9-3.31c.1-.86.19-1.73.26-2.61a54.85,54.85,0,0,0,.08-6.14L89.6,45.77c-.18-1-.4-1.9-.65-2.84l12.11-10.81A53,53,0,0,0,97,24.36L81.21,28.19c-.63-.73-1.29-1.44-2-2.13l5.09-15.42A51.11,51.11,0,0,0,76.93,6L65.18,17.15c-.91-.31-1.84-.6-2.78-.86L59.1.39C58.23.29,57.36.2,56.48.14A52.58,52.58,0,0,0,50.34.05L45.77,15.62c-1,.17-1.91.39-2.84.64L32.12,4.15a53,53,0,0,0-7.76,4.06L28.19,24c-.74.63-1.44,1.29-2.13,2L10.64,20.88A52.55,52.55,0,0,0,6,28.28L17.16,40c-.33.91-.61,1.83-.86,2.77L.39,46.12C.29,47,.2,47.85.14,48.73a52.58,52.58,0,0,0-.09,6.14l15.57,4.57c.17,1,.39,1.91.64,2.84L4.15,73.09a52.08,52.08,0,0,0,4.07,7.76L24,77c.63.73,1.29,1.44,2,2.13L20.88,94.57a55.11,55.11,0,0,0,7.4,4.7L40,88.05c.91.33,1.83.61,2.77.87l3.31,15.89c.86.11,1.73.2,2.61.26a52.72,52.72,0,0,0,6.15.09L59.45,89.6c1-.18,1.9-.4,2.83-.65l10.81,12.11A53,53,0,0,0,80.85,97L77,81.2c.73-.62,1.44-1.28,2.12-2l15.43,5.09a53.53,53.53,0,0,0,4.7-7.4L88.05,65.17C88.38,64.27,88.66,63.34,88.92,62.4ZM50.34,83.34a30.82,30.82,0,1,1,33-28.47A30.82,30.82,0,0,1,50.34,83.34Z" style="fill:#a5c6ea"/><path d="M159.73,118.18l3.51-.35a37.4,37.4,0,0,0,.22-4.07L160,113a36.61,36.61,0,0,0-.63-6.13l3.22-1.42a40.61,40.61,0,0,0-1-3.93l-3.5.38a36,36,0,0,0-2.52-5.63L158.17,94c-.68-1.17-1.42-2.32-2.21-3.42L152.73,92a36.44,36.44,0,0,0-4.11-4.59l1.78-3a37.54,37.54,0,0,0-3.17-2.58l-2.6,2.36a36.09,36.09,0,0,0-5.34-3.07l.75-3.46a37.74,37.74,0,0,0-3.8-1.46l-1.76,3.07a36.66,36.66,0,0,0-4.71-1.1c-.44-.07-.88-.12-1.32-.18l-.35-3.52c-1.36-.14-2.72-.21-4.06-.22l-.73,3.46a34.62,34.62,0,0,0-6.13.63l-1.42-3.23a40.66,40.66,0,0,0-3.93,1.06l.38,3.5a36.86,36.86,0,0,0-5.63,2.51l-2.35-2.64c-1.18.68-2.32,1.43-3.42,2.22l1.45,3.23a35,35,0,0,0-4.59,4.11l-3-1.78a38.94,38.94,0,0,0-2.57,3.16L94.42,93a35.64,35.64,0,0,0-3.08,5.34l-3.45-.75a40.37,40.37,0,0,0-1.47,3.8l3.08,1.76a36.29,36.29,0,0,0-1.11,4.71c-.07.44-.12.87-.18,1.31l-3.51.35a37.27,37.27,0,0,0-.22,4.07l3.46.73a35.58,35.58,0,0,0,.62,6.13l-3.22,1.41a40,40,0,0,0,1,3.94l3.51-.38a35.4,35.4,0,0,0,2.51,5.62l-2.64,2.36c.68,1.17,1.42,2.32,2.21,3.42l3.23-1.45A36.52,36.52,0,0,0,99.32,140l-1.77,3a39.34,39.34,0,0,0,3.16,2.57l2.6-2.37a34.92,34.92,0,0,0,5.34,3.08l-.75,3.46a38.69,38.69,0,0,0,3.8,1.46l1.76-3.07a36.66,36.66,0,0,0,4.71,1.1l1.32.18.35,3.52a40,40,0,0,0,4.07.22l.72-3.46a34.62,34.62,0,0,0,6.13-.63l1.42,3.22a39.81,39.81,0,0,0,3.93-1l-.37-3.51a35.4,35.4,0,0,0,5.62-2.51l2.35,2.64a38.45,38.45,0,0,0,3.42-2.22l-1.44-3.22a38,38,0,0,0,4.59-4.11l3,1.77a40.59,40.59,0,0,0,2.57-3.15l-2.36-2.62A35.64,35.64,0,0,0,156.6,129l3.46.75c.54-1.23,1-2.5,1.46-3.8l-3.08-1.76a35.91,35.91,0,0,0,1.11-4.71C159.62,119.06,159.67,118.62,159.73,118.18Zm-18.25-1.63a17.75,17.75,0,1,1-14.65-20.38A17.73,17.73,0,0,1,141.48,116.55Z" style="fill:#9fd0ac"/></svg>