<svg width="40" height="41" viewBox="0 0 40 41" fill="none" xmlns="http://www.w3.org/2000/svg">
<path d="M30 16.2862H27.5C27.499 15.29 27.1036 14.3349 26.4006 13.6305C25.6975 12.926 24.7443 12.5298 23.75 12.5289V10.0239C25.407 10.0259 26.9956 10.6863 28.1672 11.8603C29.3389 13.0343 29.998 14.626 30 16.2862Z" fill="#003764"/>
<path d="M35 16.2863H32.5C32.4974 13.9619 31.5746 11.7335 29.9343 10.0899C28.2939 8.4463 26.0698 7.52176 23.75 7.51911V5.01418C26.7327 5.0175 29.5922 6.20616 31.7013 8.31938C33.8104 10.4326 34.9967 13.2978 35 16.2863ZM32.5 36.3257H32.2875C7.725 34.9105 4.2375 14.1446 3.75 7.80717C3.67381 6.81366 3.9946 5.8305 4.64183 5.07395C5.28905 4.31741 6.20969 3.84945 7.20125 3.77299C7.30042 3.76548 7.4 3.76172 7.5 3.76172H14.0875C14.5882 3.76123 15.0775 3.9114 15.492 4.19277C15.9066 4.47414 16.2272 4.87374 16.4125 5.33982L18.3125 10.024C18.4954 10.4794 18.5408 10.9785 18.4431 11.4595C18.3453 11.9404 18.1086 12.382 17.7625 12.7294L15.1 15.4221C15.5142 17.791 16.6455 19.9748 18.3404 21.6776C20.0354 23.3803 22.2119 24.5196 24.575 24.9409L27.2875 22.2481C27.6394 21.9051 28.0842 21.6735 28.5666 21.5822C29.049 21.4909 29.5475 21.5439 30 21.7346L34.7125 23.6258C35.1706 23.8173 35.5615 24.1411 35.8353 24.5559C36.1092 24.9708 36.2535 25.458 36.25 25.9554V32.5684C36.25 33.5649 35.8549 34.5206 35.1516 35.2252C34.4484 35.9299 33.4946 36.3257 32.5 36.3257ZM7.5 6.26664C7.33585 6.26615 7.1732 6.29806 7.02136 6.36054C6.86951 6.42303 6.73144 6.51487 6.61502 6.63082C6.49859 6.74678 6.40611 6.88457 6.34283 7.03634C6.27956 7.18811 6.24674 7.35087 6.24625 7.51535C6.24625 7.55042 6.2475 7.58507 6.25 7.6193C6.825 15.0339 10.5125 32.5684 32.425 33.8208C32.7558 33.8407 33.081 33.7281 33.329 33.5078C33.577 33.2875 33.7275 32.9775 33.7475 32.646L33.75 32.5684V25.9554L29.0375 24.0641L25.45 27.6337L24.85 27.5585C13.975 26.1933 12.5 15.2969 12.5 15.1842L12.425 14.583L15.975 10.9884L14.1 6.26664H7.5Z" fill="#003764"/>
</svg>
