<svg width="50" height="50" viewBox="0 0 50 50" fill="none" xmlns="http://www.w3.org/2000/svg">
<circle cx="25" cy="25" r="25" fill="#003764"/>
<g clip-path="url(#clip0_305_210)">
<path d="M30 7.8125C26.7689 7.81663 23.6714 9.102 21.3867 11.3867C19.102 13.6714 17.8166 16.7689 17.8125 20C17.8093 21.3451 18.0311 22.6812 18.4687 23.9531L9.34373 33.0938C9.25335 33.1772 9.18159 33.2788 9.13313 33.3919C9.08466 33.505 9.06059 33.627 9.06248 33.75V40C9.06248 40.2486 9.16125 40.4871 9.33707 40.6629C9.51288 40.8387 9.75134 40.9375 9.99998 40.9375H16.25C16.4986 40.9375 16.7371 40.8387 16.9129 40.6629C17.0887 40.4871 17.1875 40.2486 17.1875 40V37.1875H20C20.2486 37.1875 20.4871 37.0887 20.6629 36.9129C20.8387 36.7371 20.9375 36.4986 20.9375 36.25V33.4375H23.75C23.873 33.4394 23.995 33.4153 24.1081 33.3669C24.2212 33.3184 24.3228 33.2466 24.4062 33.1562L26.0469 31.5312C27.3188 31.9689 28.6549 32.1907 30 32.1875C33.2323 32.1875 36.3322 30.9035 38.6178 28.6179C40.9034 26.3323 42.1875 23.2323 42.1875 20C42.1875 16.7677 40.9034 13.6677 38.6178 11.3821C36.3322 9.09654 33.2323 7.8125 30 7.8125ZM30 30.3125C28.6939 30.3136 27.3997 30.0643 26.1875 29.5781C26.0122 29.5058 25.8197 29.4866 25.6336 29.5227C25.4475 29.5588 25.2761 29.6487 25.1406 29.7812L23.3594 31.5625H20C19.7513 31.5625 19.5129 31.6613 19.3371 31.8371C19.1613 32.0129 19.0625 32.2514 19.0625 32.5V35.3125H16.25C16.0013 35.3125 15.7629 35.4113 15.5871 35.5871C15.4113 35.7629 15.3125 36.0014 15.3125 36.25V39.0625H10.9375V34.1406L20.2187 24.8594C20.3513 24.7239 20.4412 24.5525 20.4773 24.3664C20.5134 24.1803 20.4941 23.9877 20.4219 23.8125C19.9357 22.6003 19.6864 21.3061 19.6875 20C19.6875 17.9604 20.2923 15.9666 21.4255 14.2707C22.5586 12.5748 24.1692 11.253 26.0536 10.4725C27.9379 9.69196 30.0114 9.48774 32.0118 9.88565C34.0123 10.2836 35.8498 11.2657 37.292 12.708C38.7342 14.1502 39.7164 15.9877 40.1143 17.9881C40.5122 19.9886 40.308 22.0621 39.5275 23.9464C38.747 25.8308 37.4252 27.4414 35.7293 28.5745C34.0334 29.7077 32.0396 30.3125 30 30.3125ZM34.6875 16.875C34.6875 17.184 34.5958 17.4861 34.4242 17.7431C34.2525 18 34.0084 18.2003 33.7229 18.3186C33.4374 18.4368 33.1232 18.4678 32.8202 18.4075C32.5171 18.3472 32.2386 18.1984 32.0201 17.9799C31.8016 17.7613 31.6528 17.4829 31.5925 17.1798C31.5322 16.8767 31.5632 16.5626 31.6814 16.2771C31.7997 15.9915 31.9999 15.7475 32.2569 15.5758C32.5139 15.4041 32.8159 15.3125 33.125 15.3125C33.5394 15.3125 33.9368 15.4771 34.2298 15.7701C34.5229 16.0632 34.6875 16.4606 34.6875 16.875Z" fill="#96E6B3"/>
</g>
<defs>
<clipPath id="clip0_305_210">
<rect width="40" height="40" fill="white" transform="translate(7 5)"/>
</clipPath>
</defs>
</svg>
