<?xml version="1.0" encoding="utf-8"?>
<!-- Generator: Adobe Illustrator 24.3.0, SVG Export Plug-In . SVG Version: 6.00 Build 0)  -->
<svg version="1.1" id="Calque_1" xmlns="http://www.w3.org/2000/svg" xmlns:xlink="http://www.w3.org/1999/xlink" x="0px" y="0px"
	 viewBox="0 0 159 218.8" style="enable-background:new 0 0 159 218.8;" xml:space="preserve">
<style type="text/css">
	.st0{fill:#D8DEE8;}
	.st1{opacity:0.3;fill:#D8DEE8;}
	.st2{fill:#FFFFFF;}
	.st3{fill:#98A6B7;}
	.st4{opacity:0.1;fill:url(#SVGID_1_);}
	.st5{fill:#18385F;}
	.st6{opacity:0.2;fill:url(#SVGID_2_);}
	.st7{opacity:0.2;fill:url(#SVGID_3_);}
	.st8{opacity:0.2;fill:url(#SVGID_4_);}
	.st9{opacity:0.2;fill:url(#SVGID_5_);}
	.st10{opacity:0.2;fill:url(#SVGID_6_);}
	.st11{opacity:0.2;fill:url(#SVGID_7_);}
	.st12{opacity:0.2;fill:url(#SVGID_8_);}
	.st13{opacity:0.2;fill:url(#SVGID_9_);}
	.st14{opacity:0.2;fill:url(#SVGID_10_);}
	.st15{opacity:0.2;fill:url(#SVGID_11_);}
	.st16{opacity:0.2;fill:url(#SVGID_12_);}
	.st17{opacity:0.2;fill:url(#SVGID_13_);}
	.st18{opacity:0.2;fill:url(#SVGID_14_);}
	.st19{opacity:0.2;fill:url(#SVGID_15_);}
	.st20{opacity:0.2;fill:url(#SVGID_16_);}
	.st21{opacity:0.2;fill:url(#SVGID_17_);}
	.st22{opacity:0.2;fill:url(#SVGID_18_);}
	.st23{opacity:0.2;fill:url(#SVGID_19_);}
	.st24{opacity:0.2;fill:url(#SVGID_20_);}
	.st25{opacity:0.2;fill:url(#SVGID_21_);}
	.st26{opacity:0.2;fill:url(#SVGID_22_);}
	.st27{opacity:0.2;fill:url(#SVGID_23_);}
	.st28{opacity:0.2;fill:url(#SVGID_24_);}
</style>
<g>
	<g>
		<g>
			<polygon class="st0" points="146.9,15.2 146.9,211 115.3,212.7 0,218.8 0,11.4 			"/>
			<path class="st1" d="M115.3,212.7L0,218.8V18c10.3,8.1,19.5,19.3,21.3,34.1c4.5,37.9-10.4,107,44.2,112.2
				C104.4,168,119.5,191.9,115.3,212.7z"/>
		</g>
		<path class="st2" d="M158.8,4.4v194.9l-11.8,0.6l-31.3,1.5l-82.5,4l-20-31.2c0,0,0.1,0,0.1,0V0L158.8,4.4z"/>
		<path class="st0" d="M13.1,174.2c0,0,11.3,13.1,38.9,17.1l-18.9,14.1L13.1,174.2z"/>
	</g>
	<g>
		<path class="st3" d="M25.3,24.5v3.8l6,0.1V46l4.7,0.1V28.5l6,0.1v-3.8L25.3,24.5z"/>
		<path class="st3" d="M57,25.1l-5.7-0.1l-7.8,21.2l5.1,0.1l1.6-5l8,0.1l1.6,5l5,0.1L57,25.1z M51.3,37.4c1.6-4.8,2.5-7.9,2.9-9.1
			c0.1,0.4,0.2,0.8,0.4,1.4c0.2,0.6,1,3.2,2.5,7.8L51.3,37.4z"/>
		<path class="st3" d="M78.5,36l6.8-10.3l-4.9-0.1l-4.6,7.5l-4.7-7.6L66,25.3l6.8,10.3l-7.2,10.7l5,0.1l5.1-7.9l5,8l5.2,0.1L78.5,36
			z"/>
	</g>
	<polygon class="st0" points="133.1,31.3 92.7,30.5 92.7,25.8 133.1,26.7 	"/>
	<polygon class="st0" points="150.2,39.6 92.7,38.7 92.7,33.8 150.2,34.8 	"/>
	<polygon class="st0" points="150.2,47.4 92.7,46.6 92.7,42 150.2,42.8 	"/>
	<g>
		<polygon class="st0" points="66.5,68.1 25.2,68 25.2,63.2 66.5,63.4 		"/>
		<g>
			<g>
				<path class="st0" d="M44.9,75.6l-16.6,0v18.5l5.8,0l2.9,0l10.7-0.1V75.6L44.9,75.6z M45,91.5l-5.9,0l-7.6,0l-0.8,0V78.1
					l12.6,0.2H45V91.5z"/>
			</g>
			<polygon class="st0" points="150.2,80.5 55.9,80.6 55.9,75.6 150.2,75.7 			"/>
			<polygon class="st0" points="150.2,88.3 55.9,88.6 55.9,83.9 150.2,83.7 			"/>
		</g>
		<g>
			<g>
				<path class="st0" d="M43.6,102.9L28.3,103v18.5l19.4-0.3v-18.4L43.6,102.9z M45,118.8l-7.1,0.1l-4.6,0.1l-2.6,0v-13.5l11.4-0.1
					l3,0V118.8z"/>
			</g>
			<polygon class="st0" points="150.2,106.7 55.9,107.8 55.9,102.8 150.2,101.9 			"/>
			<polygon class="st0" points="150.2,114.5 55.9,115.8 55.9,111.1 150.2,109.9 			"/>
		</g>
		<g>
			<g>
				<path class="st0" d="M28.3,130.5V149l6.9-0.2l12.5-0.3v-18.4L28.3,130.5z M45,146.4l-11.2,0.3l-3.2,0.1V133l14.4-0.3V146.4z"/>
			</g>
			<polygon class="st0" points="150.2,132.9 55.9,135 55.9,130 150.2,128.1 			"/>
			<polygon class="st0" points="150.2,140.7 55.9,143 55.9,138.3 150.2,136.1 			"/>
		</g>
		<g>
			<g>
				<path class="st0" d="M44.4,157.5L28.3,158v18.5l19.4-0.7v-18.4L44.4,157.5z M45,173.7l-14.4,0.5v-13.7L45,160V173.7z"/>
			</g>
			<polygon class="st0" points="150.2,159.1 55.9,162.2 55.9,157.2 150.2,154.3 			"/>
			<polygon class="st0" points="150.2,166.9 55.9,170.2 55.9,165.5 150.2,162.3 			"/>
		</g>
	</g>
	<g>
		<path class="st3" d="M35.6,94.5c-0.6,0-1.2-0.2-1.6-0.6l-6.4-6c-0.9-0.9-0.9-2.2,0-3.1c0.9-0.9,2.4-0.9,3.3,0l4.4,4.2l10.2-14.1
			c0.7-1,2.1-1.2,3.2-0.5c1,0.7,1.3,2,0.6,3L37.5,93.6c-0.4,0.5-1,0.9-1.7,0.9C35.7,94.5,35.7,94.5,35.6,94.5z"/>
	</g>
	<g>
		<path class="st3" d="M35.6,120.3c-0.6,0-1.2-0.2-1.6-0.6l-6.4-6c-0.9-0.8-0.9-2.2,0-3.1c0.9-0.9,2.4-0.9,3.3,0l4.4,4.2l10.2-14.2
			c0.7-1,2.1-1.2,3.2-0.6c1,0.7,1.3,2,0.6,3l-11.8,16.4c-0.4,0.5-1,0.9-1.7,1C35.7,120.2,35.7,120.3,35.6,120.3z"/>
	</g>
</g>
<g>
	<linearGradient id="SVGID_1_" gradientUnits="userSpaceOnUse" x1="118.4221" y1="16.6599" x2="144.9454" y2="79.9326">
		<stop  offset="0" style="stop-color:#444C8D"/>
		<stop  offset="0.9964" style="stop-color:#26274F"/>
	</linearGradient>
	<path class="st4" d="M158.1,54.1c-0.1,0-0.2,0.1-0.3,0.1h-2.1v6H100c-0.6,0-1.2-0.5-1.4-1.1l-0.5-1.7c-0.8-3-1.4-6.2-1.6-9.3
		c-0.1-1.4-0.2-2.8-0.2-4.2V13.5c0-0.8,0.7-1.5,1.5-1.4l56.7,1.7c1.3,0-1,2.8-1,4.1l2.1,16.7l1.2,9.6
		C156.9,46.9,157.5,50.8,158.1,54.1z"/>
	<path class="st5" d="M158.1,54.1c-0.1,0-0.2,0.1-0.3,0.1H100c-0.6,0-1.2-0.5-1.4-1.1l-0.5-1.7c-0.3-1.1-0.6-2.2-0.8-3.4
		c-0.3-1.5-0.6-3.1-0.7-4.6c-0.1-1.1-0.2-2.2-0.3-3.3c0-0.7-0.1-1.4-0.1-2.2V7.6c0-0.8,0.7-1.5,1.5-1.4l56.7,1.7
		c0.4,0,0.7,0.1,1,0.3c0.7,0.4,1.2,1.2,1.2,2.1v28c0,4.1,1.5,11.3,2.2,14.4C159.2,53.3,158.8,54,158.1,54.1z"/>
	<path class="st2" d="M151.5,17.6C151.5,17.6,151.5,17.6,151.5,17.6l-49.7-1.2c-0.5,0-0.9-0.4-0.8-0.9c0-0.5,0.4-0.9,0.9-0.8
		l49.7,1.2c0.5,0,0.9,0.4,0.8,0.9C152.4,17.2,152,17.6,151.5,17.6z"/>
	<polygon class="st2" points="145.1,38.4 139.4,38.3 139.4,34.2 145.1,34.3 	"/>
	<g>
		<linearGradient id="SVGID_2_" gradientUnits="userSpaceOnUse" x1="117.0291" y1="23.2485" x2="123.1939" y2="23.2485">
			<stop  offset="0" style="stop-color:#FFFFFF"/>
			<stop  offset="0.9964" style="stop-color:#EBEFF2"/>
		</linearGradient>
		<polygon class="st6" points="123.2,25.5 117,25.3 117,21 123.2,21.2 		"/>
		<linearGradient id="SVGID_3_" gradientUnits="userSpaceOnUse" x1="124.6447" y1="23.4935" x2="130.6682" y2="23.4935">
			<stop  offset="0" style="stop-color:#FFFFFF"/>
			<stop  offset="0.9964" style="stop-color:#EBEFF2"/>
		</linearGradient>
		<polygon class="st7" points="130.7,25.7 124.6,25.5 124.6,21.3 130.7,21.5 		"/>
		<linearGradient id="SVGID_4_" gradientUnits="userSpaceOnUse" x1="132.086" y1="23.733" x2="137.973" y2="23.733">
			<stop  offset="0" style="stop-color:#FFFFFF"/>
			<stop  offset="0.9964" style="stop-color:#EBEFF2"/>
		</linearGradient>
		<polygon class="st8" points="138,25.9 132.1,25.7 132.1,21.6 138,21.8 		"/>
		<linearGradient id="SVGID_5_" gradientUnits="userSpaceOnUse" x1="139.3588" y1="23.967" x2="145.1139" y2="23.967">
			<stop  offset="0" style="stop-color:#FFFFFF"/>
			<stop  offset="0.9964" style="stop-color:#EBEFF2"/>
		</linearGradient>
		<polygon class="st9" points="145.1,26.1 139.4,25.9 139.4,21.8 145.1,22 		"/>
		<linearGradient id="SVGID_6_" gradientUnits="userSpaceOnUse" x1="146.4688" y1="24.1958" x2="152.0964" y2="24.1958">
			<stop  offset="0" style="stop-color:#FFFFFF"/>
			<stop  offset="0.9964" style="stop-color:#EBEFF2"/>
		</linearGradient>
		<polygon class="st10" points="152.1,26.3 146.5,26.2 146.5,22.1 152.1,22.3 		"/>
		<linearGradient id="SVGID_7_" gradientUnits="userSpaceOnUse" x1="101.2497" y1="29.2629" x2="107.7124" y2="29.2629">
			<stop  offset="0" style="stop-color:#FFFFFF"/>
			<stop  offset="0.9964" style="stop-color:#EBEFF2"/>
		</linearGradient>
		<polygon class="st11" points="107.7,31.5 101.2,31.4 101.2,27 107.7,27.2 		"/>
		<linearGradient id="SVGID_8_" gradientUnits="userSpaceOnUse" x1="109.2329" y1="29.4428" x2="115.5441" y2="29.4428">
			<stop  offset="0" style="stop-color:#FFFFFF"/>
			<stop  offset="0.9964" style="stop-color:#EBEFF2"/>
		</linearGradient>
		<polygon class="st12" points="115.5,31.7 109.2,31.5 109.2,27.2 115.5,27.4 		"/>
		<linearGradient id="SVGID_9_" gradientUnits="userSpaceOnUse" x1="117.0291" y1="29.6184" x2="123.1939" y2="29.6184">
			<stop  offset="0" style="stop-color:#FFFFFF"/>
			<stop  offset="0.9964" style="stop-color:#EBEFF2"/>
		</linearGradient>
		<polygon class="st13" points="123.2,31.8 117,31.7 117,27.4 123.2,27.6 		"/>
		<linearGradient id="SVGID_10_" gradientUnits="userSpaceOnUse" x1="124.6447" y1="29.79" x2="130.6682" y2="29.79">
			<stop  offset="0" style="stop-color:#FFFFFF"/>
			<stop  offset="0.9964" style="stop-color:#EBEFF2"/>
		</linearGradient>
		<polygon class="st14" points="130.7,32 124.6,31.8 124.6,27.6 130.7,27.8 		"/>
		<linearGradient id="SVGID_11_" gradientUnits="userSpaceOnUse" x1="132.086" y1="29.9577" x2="137.973" y2="29.9577">
			<stop  offset="0" style="stop-color:#FFFFFF"/>
			<stop  offset="0.9964" style="stop-color:#EBEFF2"/>
		</linearGradient>
		<polygon class="st15" points="138,32.1 132.1,32 132.1,27.8 138,28 		"/>
		<linearGradient id="SVGID_12_" gradientUnits="userSpaceOnUse" x1="139.3588" y1="30.1216" x2="145.1139" y2="30.1216">
			<stop  offset="0" style="stop-color:#FFFFFF"/>
			<stop  offset="0.9964" style="stop-color:#EBEFF2"/>
		</linearGradient>
		<polygon class="st16" points="145.1,32.2 139.4,32.1 139.4,28 145.1,28.1 		"/>
		<linearGradient id="SVGID_13_" gradientUnits="userSpaceOnUse" x1="146.4688" y1="30.2819" x2="152.0964" y2="30.2819">
			<stop  offset="0" style="stop-color:#FFFFFF"/>
			<stop  offset="0.9964" style="stop-color:#EBEFF2"/>
		</linearGradient>
		<polygon class="st17" points="152.1,32.4 146.5,32.3 146.5,28.2 152.1,28.3 		"/>
		<linearGradient id="SVGID_14_" gradientUnits="userSpaceOnUse" x1="101.2497" y1="35.785" x2="107.7124" y2="35.785">
			<stop  offset="0" style="stop-color:#FFFFFF"/>
			<stop  offset="0.9964" style="stop-color:#EBEFF2"/>
		</linearGradient>
		<polygon class="st18" points="107.7,38 101.2,37.9 101.2,33.6 107.7,33.7 		"/>
		<linearGradient id="SVGID_15_" gradientUnits="userSpaceOnUse" x1="109.2329" y1="35.8878" x2="115.5441" y2="35.8878">
			<stop  offset="0" style="stop-color:#FFFFFF"/>
			<stop  offset="0.9964" style="stop-color:#EBEFF2"/>
		</linearGradient>
		<polygon class="st19" points="115.5,38.1 109.2,38 109.2,33.7 115.5,33.8 		"/>
		<linearGradient id="SVGID_16_" gradientUnits="userSpaceOnUse" x1="117.0291" y1="35.9884" x2="123.1939" y2="35.9884">
			<stop  offset="0" style="stop-color:#FFFFFF"/>
			<stop  offset="0.9964" style="stop-color:#EBEFF2"/>
		</linearGradient>
		<polygon class="st20" points="123.2,38.2 117,38.1 117,33.8 123.2,33.9 		"/>
		<linearGradient id="SVGID_17_" gradientUnits="userSpaceOnUse" x1="124.6447" y1="36.0866" x2="130.6682" y2="36.0866">
			<stop  offset="0" style="stop-color:#FFFFFF"/>
			<stop  offset="0.9964" style="stop-color:#EBEFF2"/>
		</linearGradient>
		<polygon class="st21" points="130.7,38.2 124.6,38.2 124.6,33.9 130.7,34 		"/>
		<linearGradient id="SVGID_18_" gradientUnits="userSpaceOnUse" x1="132.086" y1="36.1825" x2="137.973" y2="36.1825">
			<stop  offset="0" style="stop-color:#FFFFFF"/>
			<stop  offset="0.9964" style="stop-color:#EBEFF2"/>
		</linearGradient>
		<polygon class="st22" points="138,38.3 132.1,38.2 132.1,34.1 138,34.2 		"/>
		<linearGradient id="SVGID_19_" gradientUnits="userSpaceOnUse" x1="146.4688" y1="36.368" x2="152.0964" y2="36.368">
			<stop  offset="0" style="stop-color:#FFFFFF"/>
			<stop  offset="0.9964" style="stop-color:#EBEFF2"/>
		</linearGradient>
		<polygon class="st23" points="152.1,38.4 146.5,38.4 146.5,34.3 152.1,34.4 		"/>
		<linearGradient id="SVGID_20_" gradientUnits="userSpaceOnUse" x1="101.2497" y1="42.307" x2="107.7124" y2="42.307">
			<stop  offset="0" style="stop-color:#FFFFFF"/>
			<stop  offset="0.9964" style="stop-color:#EBEFF2"/>
		</linearGradient>
		<polygon class="st24" points="107.7,44.5 101.2,44.5 101.2,40.1 107.7,40.2 		"/>
		<linearGradient id="SVGID_21_" gradientUnits="userSpaceOnUse" x1="109.2329" y1="42.333" x2="115.5441" y2="42.333">
			<stop  offset="0" style="stop-color:#FFFFFF"/>
			<stop  offset="0.9964" style="stop-color:#EBEFF2"/>
		</linearGradient>
		<polygon class="st25" points="115.5,44.5 109.2,44.5 109.2,40.2 115.5,40.2 		"/>
		<linearGradient id="SVGID_22_" gradientUnits="userSpaceOnUse" x1="117.0291" y1="42.3583" x2="123.1939" y2="42.3583">
			<stop  offset="0" style="stop-color:#FFFFFF"/>
			<stop  offset="0.9964" style="stop-color:#EBEFF2"/>
		</linearGradient>
		<polygon class="st26" points="123.2,44.5 117,44.5 117,40.2 123.2,40.3 		"/>
		<linearGradient id="SVGID_23_" gradientUnits="userSpaceOnUse" x1="124.6447" y1="42.3831" x2="130.6682" y2="42.3831">
			<stop  offset="0" style="stop-color:#FFFFFF"/>
			<stop  offset="0.9964" style="stop-color:#EBEFF2"/>
		</linearGradient>
		<polygon class="st27" points="130.7,44.5 124.6,44.5 124.6,40.3 130.7,40.3 		"/>
		<linearGradient id="SVGID_24_" gradientUnits="userSpaceOnUse" x1="132.086" y1="42.4073" x2="137.973" y2="42.4073">
			<stop  offset="0" style="stop-color:#FFFFFF"/>
			<stop  offset="0.9964" style="stop-color:#EBEFF2"/>
		</linearGradient>
		<polygon class="st28" points="138,44.5 132.1,44.5 132.1,40.3 138,40.4 		"/>
	</g>
</g>
</svg>
