<svg width="40" height="41" viewBox="0 0 40 41" fill="none" xmlns="http://www.w3.org/2000/svg">
<path d="M25.8333 2.51514H12.5C11.3949 2.51514 10.3351 2.95499 9.55372 3.73793C8.77232 4.52087 8.33334 5.58277 8.33334 6.69001V35.0792C8.33334 36.1864 8.77232 37.2483 9.55372 38.0312C10.3351 38.8142 11.3949 39.254 12.5 39.254H25.8333C26.9384 39.254 27.9982 38.8142 28.7796 38.0312C29.561 37.2483 30 36.1864 30 35.0792V6.69001C30 5.58277 29.561 4.52087 28.7796 3.73793C27.9982 2.95499 26.9384 2.51514 25.8333 2.51514ZM19.1667 37.5841C17.7833 37.5841 16.6667 36.4652 16.6667 35.0792C16.6667 33.6931 17.7833 32.5742 19.1667 32.5742C20.55 32.5742 21.6667 33.6931 21.6667 35.0792C21.6667 36.4652 20.55 37.5841 19.1667 37.5841ZM26.6667 30.9043H11.6667V7.52499H26.6667V30.9043Z" fill="#003764"/>
</svg>
